<?xml version="1.0" encoding="utf-8"?>
<!-- Generator: Adobe Illustrator 13.0.0, SVG Export Plug-In . SVG Version: 6.00 Build 14948)  -->
<!DOCTYPE svg PUBLIC "-//W3C//DTD SVG 1.1//EN" "http://www.w3.org/Graphics/SVG/1.1/DTD/svg11.dtd">
<svg version="1.1" id="Layer_1" xmlns="http://www.w3.org/2000/svg" xmlns:xlink="http://www.w3.org/1999/xlink" x="0px" y="0px"
	 width="60px" height="60px" viewBox="0 0 60 60" enable-background="new 0 0 60 60" xml:space="preserve">
<title></title>
<desc></desc>
<g>
	<title>background</title>
	<rect id="canvas_background" x="-1" y="-1" fill="none" width="582" height="402"/>
</g>
<g>
	<title>Layer 1</title>
	<path id="price-tag" fill="#25C485" d="M51.887,36.574c-0.478-0.28-1.09-0.119-1.369,0.357L39.057,56.482
		c-0.828,1.433-2.668,1.926-4.056,1.125l-2.233-1.446c-0.461-0.302-1.082-0.168-1.381,0.295c-0.302,0.464-0.17,1.083,0.295,1.383
		l2.275,1.476c0.785,0.453,1.645,0.668,2.492,0.668c1.729,0,3.412-0.896,4.335-2.494l11.459-19.545
		C52.521,37.467,52.363,36.855,51.887,36.574L51.887,36.574z M59.912,5v16c0,3.094-0.984,5.399-3.293,7.707l-29.698,29.74
		c-0.945,0.945-2.201,1.464-3.537,1.464c-1.336,0-2.591-0.519-3.534-1.464L1.465,40.063C0.52,39.118,0,37.861,0,36.525
		s0.52-2.59,1.465-3.535L27.439,7.052c-6.792-1.544-11.007-1.648-12.241-1.287c0.521,0.533,2.144,1.665,6.061,3.209
		c0.514,0.203,0.766,0.783,0.564,1.297c-0.203,0.514-0.784,0.763-1.297,0.564c-8.108-3.196-7.634-4.968-7.455-5.635
		c0.371-1.39,2.352-1.853,6.41-1.498c3.305,0.289,7.571,1.104,12.012,2.293c4.44,1.19,8.541,2.617,11.547,4.02
		c3.695,1.723,5.177,3.112,4.804,4.503c-0.361,1.342-2.231,1.506-2.847,1.56c-0.028,0.003-0.06,0.004-0.088,0.004
		c-0.513,0-0.949-0.393-0.995-0.913c-0.049-0.55,0.357-1.035,0.909-1.083c0.426-0.037,0.709-0.095,0.892-0.147
		c-0.428-0.447-1.511-1.144-3.242-1.974c-0.363,0.612-0.561,1.315-0.561,2.035c0,2.206,1.794,4,4,4s4-1.794,4-4s-1.794-4-4-4
		c-0.553,0-1-0.447-1-1c0-0.553,0.447-1,1-1c3.309,0,6,2.691,6,6s-2.691,6-6,6s-6-2.691-6-6c0-1.003,0.264-1.98,0.734-2.852
		c-2.393-1.005-5.603-2.13-9.67-3.221c-0.43-0.115-0.842-0.22-1.255-0.325L2.879,34.406C2.312,34.972,2,35.727,2,36.525
		c0,0.803,0.312,1.556,0.879,2.123l18.385,18.385c1.133,1.133,3.109,1.133,4.242,0l29.698-29.74
		c1.949-1.948,2.708-3.713,2.708-6.293V5c0-1.654-1.346-3-3-3h-16c-2.58,0-4.346,0.759-6.293,2.707
		c-0.391,0.391-1.023,0.391-1.414,0c-0.391-0.391-0.391-1.023,0-1.414C33.514,0.984,35.818,0,38.912,0h16
		C57.669,0,59.912,2.243,59.912,5L59.912,5z"/>
</g>
<g>
	<title>Layer 1</title>
	<path id="svg_1" fill="#25C485" d="M38.082,34.338l-1.373,1.372c-0.126,0.126-0.27,0.188-0.432,0.188
		c-0.16-0.001-0.305-0.063-0.43-0.188l-2.261-2.261c-1.499,1.086-3.127,1.557-4.886,1.413c-1.757-0.145-3.49-0.888-5.194-2.233
		c-0.099,3.095-0.444,7.558-1.035,13.389c-0.018,0.27-0.153,0.44-0.405,0.513c-0.233,0.09-0.443,0.04-0.632-0.148l-2.625-2.625
		c-0.144-0.144-0.202-0.31-0.175-0.497c0.547-6.038,0.874-10.833,0.982-14.387c0-0.161,0.059-0.301,0.174-0.417l1.71-1.71
		c0.116-0.116,0.259-0.174,0.43-0.175c0.169,0.001,0.314,0.058,0.432,0.175l1.507,1.507c1.185,1.184,2.33,1.945,3.437,2.282
		c1.109,0.335,2.129,0.234,3.063-0.304l-5.746-5.746c-0.126-0.125-0.188-0.27-0.189-0.43c0-0.162,0.063-0.305,0.188-0.431
		l1.373-1.373c0.125-0.125,0.269-0.188,0.431-0.188c0.161,0,0.305,0.063,0.43,0.188l5.558,5.558
		c0.503-1.525-0.192-3.234-2.086-5.127l-1.951-1.951c-0.117-0.117-0.175-0.26-0.175-0.431s0.059-0.314,0.175-0.431l1.79-1.79
		c0.126-0.126,0.27-0.188,0.431-0.188s0.306,0.063,0.431,0.188l11.196,11.196c0.126,0.127,0.188,0.271,0.188,0.432
		c0.001,0.161-0.063,0.305-0.188,0.431l-1.372,1.372c-0.126,0.126-0.27,0.189-0.431,0.189c-0.161-0.001-0.306-0.063-0.432-0.189
		l-3.135-3.135c-0.126,0.969-0.484,1.901-1.077,2.799l2.302,2.302c0.126,0.125,0.188,0.269,0.188,0.43
		C38.27,34.068,38.207,34.212,38.082,34.338z"/>
</g>
<g>
	<title>Layer 1</title>
	<path id="svg_1_1_" fill="none" stroke="#25C485" d="M30.387,43.307l-4.978,4.978v-3.427c0-0.249-0.202-0.451-0.452-0.451
		s-0.452,0.202-0.452,0.451v4.518l0,0c0,0.029,0.003,0.059,0.009,0.088c0.003,0.014,0.008,0.026,0.011,0.039
		c0.005,0.016,0.008,0.03,0.014,0.046c0.006,0.015,0.015,0.028,0.023,0.043c0.006,0.012,0.011,0.023,0.019,0.034
		c0.017,0.025,0.036,0.049,0.057,0.069l0,0h0c0.021,0.021,0.044,0.04,0.068,0.057c0.011,0.007,0.024,0.012,0.036,0.019
		c0.014,0.008,0.027,0.016,0.042,0.021c0.016,0.008,0.032,0.012,0.048,0.016c0.012,0.004,0.024,0.009,0.036,0.011
		c0.029,0.006,0.059,0.009,0.089,0.009h4.517c0.249,0,0.451-0.202,0.451-0.451c0-0.25-0.202-0.452-0.451-0.452h-3.427l4.979-4.978
		c0.176-0.176,0.176-0.463,0-0.639C30.85,43.13,30.563,43.13,30.387,43.307z"/>
</g>
</svg>
