<svg width="64" height="64" xmlns="http://www.w3.org/2000/svg">
 <title/>

 <g>
  <title>background</title>
  <rect x="-1" y="-1" width="11.481263" height="11.481263" id="canvas_background" fill="none"/>
 </g>
 <g>
  <title>Layer 1</title>
  <path class="cls-2" d="m47.49316,16.86035a10.69506,10.69506 0 0 0 -12.56238,-4.938a12.4869,12.4869 0 0 0 -21.54308,10.58449c1.05078,5.91406 7.06543,13.69336 13.65918,13.69336a8.32686,8.32686 0 0 0 0.88684,-0.053a41.43243,41.43243 0 0 0 1.74695,5.65265c1.21252,3.4137 2.68286,7.58911 2.90045,10.99664a2.82453,2.82453 0 0 0 -1.77838,-0.191c-2.16113,0.44434 -2.2793,1.50684 -2.1582,2.10156a1.57968,1.57968 0 0 0 0.9834,1.08789a2.49568,2.49568 0 0 0 0.9873,0.20313a2.32483,2.32483 0 0 0 0.4541,-0.04395a3.19606,3.19606 0 0 0 1.12512,-0.49121a7.158,7.158 0 0 1 -2.76184,2.84473a0.49992,0.49992 0 0 0 0.2334,0.94238a0.506,0.506 0 0 0 0.23145,-0.05664a7.69622,7.69622 0 0 0 3.47217,-3.9787a2.88249,2.88249 0 0 0 1.05908,0.70819a4.1792,4.1792 0 0 0 1.49512,0.334a1.43385,1.43385 0 0 0 1.46,-0.92187a2.04078,2.04078 0 0 0 -1.35547,-2.36621a3.58061,3.58061 0 0 0 -2.39471,-0.01331a52.32185,52.32185 0 0 1 0.60956,-6.60291a75.92316,75.92316 0 0 0 0.843,-10.77686a7.066,7.066 0 0 0 1.24878,0.12354a10.90773,10.90773 0 0 0 6.752,-2.791a16.51124,16.51124 0 0 0 5.39933,-7.90825a10.64126,10.64126 0 0 0 -0.99317,-8.13965zm-32.13671,5.29688a10.5003,10.5003 0 1 1 20.67675,-3.67383c1.0791,6.07617 -2.41992,14.64844 -7.88965,15.62109c-5.48535,0.96289 -11.70703,-5.87207 -12.7871,-11.94726zm13.55834,13.80511a8.78867,8.78867 0 0 0 3.33826,-1.58508a7.106,7.106 0 0 0 1.83588,0.942a74.76042,74.76042 0 0 1 -0.837,10.89752c-0.11615,0.84961 -0.22424,1.68872 -0.32239,2.53851c-0.60773,-2.49017 -1.51123,-5.05212 -2.30652,-7.29047a40.76631,40.76631 0 0 1 -1.70823,-5.50248zm1.95337,19.01129a1.46778,1.46778 0 0 1 -0.84277,-0.0957a0.62758,0.62758 0 0 1 -0.40039,-0.37207c-0.10352,-0.50586 0.69238,-0.7793 1.37891,-0.91992a2.05226,2.05226 0 0 1 0.42188,-0.04395a1.80023,1.80023 0 0 1 1.0332,0.31934a2.72768,2.72768 0 0 1 -1.59083,1.1123zm4.79492,-1.07324c0.48926,0.19141 0.91016,0.76172 0.78906,1.06934c-0.1875,0.47949 -1.00586,0.27734 -1.6582,0.02148a1.84073,1.84073 0 0 1 -1.07031,-1.02344a2.72931,2.72931 0 0 1 1.93946,-0.06738l-0.00001,0zm11.86035,-29.168c-1.51465,5.44629 -7.84277,11.124 -12.79687,9.752a5.97522,5.97522 0 0 1 -1.67743,-0.77362c4.00977,-3.71382 5.80487,-10.78077 4.95287,-15.57698a12.4064,12.4064 0 0 0 -2.3551,-5.35522a9.68828,9.68828 0 0 1 11.87654,11.95385l-0.00001,-0.00003z" id="svg_2" fill="#25c485"/>
  <text fill="#25c485" stroke-width="0" stroke-opacity="0" x="-3.749808" y="20.068759" id="svg_7" font-size="24" font-family="Helvetica, Arial, sans-serif" text-anchor="start" xml:space="preserve" transform="rotate(90 27.0919246673584,23.665481567382816) matrix(0.45267671978527346,0,0,0.45267671978527346,21.843703535876134,18.27933539874211) " stroke="#fcfcfc">;-P</text>
 </g>
</svg>