<?xml version="1.0" encoding="utf-8"?>
<!-- Generator: Adobe Illustrator 16.0.0, SVG Export Plug-In . SVG Version: 6.00 Build 0)  -->
<!DOCTYPE svg PUBLIC "-//W3C//DTD SVG 1.1//EN" "http://www.w3.org/Graphics/SVG/1.1/DTD/svg11.dtd">
<svg version="1.1" id="Layer_1" xmlns="http://www.w3.org/2000/svg" xmlns:xlink="http://www.w3.org/1999/xlink" x="0px" y="0px"
	 width="500px" height="196.766px" viewBox="0 0 500 196.766" enable-background="new 0 0 500 196.766" xml:space="preserve">
<g>
	<path fill="#9B3236" d="M227.181,63.256c-4.991,0-9.68,1.943-13.207,5.471c-3.524,3.532-5.468,8.219-5.468,13.2
		c0,2.093,1.696,3.784,3.784,3.784c2.091,0,3.783-1.691,3.783-3.784c0-2.961,1.156-5.751,3.254-7.856
		c2.097-2.093,4.884-3.248,7.854-3.248c2.092,0,3.783-1.695,3.783-3.783C230.964,64.952,229.273,63.256,227.181,63.256z"/>
	<path fill="#9B3236" d="M350.968,68.191h-44.934c-1.755-4.265-4.356-8.267-7.817-11.725c-6.798-6.802-15.843-10.544-25.458-10.544
		c-8.408,0-16.374,2.86-22.787,8.122c-6.417-5.262-14.386-8.122-22.791-8.122c-9.62,0-18.66,3.743-25.461,10.544
		c-3.462,3.458-6.063,7.46-7.817,11.725h-44.931c-7.602,0-13.787,6.186-13.787,13.787c0,7.605,6.186,13.787,13.787,13.787h8.827
		c-0.95,1.872-1.5,3.982-1.5,6.218c0,7.604,6.183,13.789,13.788,13.789h1.72c-0.949,1.87-1.496,3.978-1.496,6.214
		c0,7.606,6.184,13.796,13.787,13.796h46.009l17.19,17.189c0.709,0.708,1.668,1.108,2.674,1.108c1.002,0,1.966-0.4,2.676-1.108
		l17.187-17.189h46.004c7.608,0,13.791-6.189,13.791-13.796c0-2.236-0.547-4.344-1.495-6.214h1.721
		c7.604,0,13.787-6.184,13.787-13.789c0-2.236-0.551-4.347-1.499-6.218h8.825c7.598,0,13.783-6.182,13.783-13.787
		C364.751,74.376,358.565,68.191,350.968,68.191z M184.098,128.213c-3.431,0-6.221-2.792-6.221-6.228
		c0-3.418,2.771-6.196,6.185-6.214h10.895c2.091,0,3.783-1.696,3.783-3.785c0-2.088-1.692-3.781-3.783-3.781h-10.82
		c-0.012,0-0.022-0.005-0.038-0.005c-0.021,0-0.047,0.005-0.07,0.005h-13.941c-3.433,0-6.223-2.79-6.223-6.223
		c0-3.427,2.79-6.218,6.223-6.218h8.222c2.091,0,3.784-1.695,3.784-3.779c0-2.093-1.693-3.785-3.784-3.785h-29.337
		c-3.429,0-6.22-2.794-6.22-6.223s2.791-6.22,6.22-6.22h42.77c-1.925,11.153,1.382,23.042,9.979,31.635l20.818,20.82H184.098z
		 M249.972,144.944l-42.902-42.901c-11.091-11.091-11.091-29.136,0-40.228c5.372-5.371,12.514-8.326,20.112-8.326
		c7.6,0,14.74,2.955,20.116,8.326c1.479,1.474,3.872,1.479,5.35,0c5.37-5.371,12.512-8.326,20.111-8.326
		c7.596,0,14.735,2.955,20.108,8.326c11.09,11.092,11.09,29.137,0,40.228L249.972,144.944z M350.968,88.201h-29.337
		c-2.087,0-3.782,1.691-3.782,3.785c0,2.084,1.695,3.779,3.782,3.779h8.224c3.433,0,6.222,2.791,6.222,6.218
		c0,3.434-2.789,6.223-6.222,6.223h-13.942c-0.024,0-0.047-0.005-0.074-0.005c-0.012,0-0.022,0.005-0.035,0.005h-10.819
		c-2.09,0-3.782,1.693-3.782,3.781c0,2.088,1.692,3.785,3.782,3.785h10.891c3.419,0.018,6.189,2.796,6.189,6.214
		c0,3.436-2.793,6.228-6.226,6.228h-38.438l20.817-20.82c8.596-8.593,11.903-20.482,9.975-31.635h42.776
		c3.429,0,6.217,2.791,6.217,6.22S354.396,88.201,350.968,88.201z"/>
</g>
<rect x="1.875" y="126.047" fill="#9B3236" width="160.124" height="3.095"/>
<rect x="338.807" y="122.549" fill="#9B3236" width="160.123" height="3.096"/>
</svg>
