<?xml version="1.0" encoding="utf-8"?>
<!-- Generator: Adobe Illustrator 13.0.0, SVG Export Plug-In . SVG Version: 6.00 Build 14948)  -->
<!DOCTYPE svg PUBLIC "-//W3C//DTD SVG 1.1//EN" "http://www.w3.org/Graphics/SVG/1.1/DTD/svg11.dtd">
<svg version="1.1" id="Layer_1" xmlns="http://www.w3.org/2000/svg" xmlns:xlink="http://www.w3.org/1999/xlink" x="0px" y="0px"
	 width="300px" height="300px" viewBox="0 0 300 300" enable-background="new 0 0 300 300" xml:space="preserve">
<g>
	<g>
		<g>
			<g>
				<g>
					<path fill="#363639" d="M165.719,101.415c-0.072-0.834-0.814-1.464-1.639-1.393c-0.844,0.063-1.475,0.804-1.402,1.637
						l0.213,2.737c1.018-0.783,1.973-1.627,2.859-2.554L165.719,101.415z M150.244,108.649c-0.09-0.834-0.844-1.445-1.688-1.354
						c-0.834,0.102-1.436,0.855-1.344,1.689l0.133,1.158c1.027-0.04,2.035-0.141,3.031-0.304L150.244,108.649z M143.5,107.01
						c-0.021-0.01-0.029-0.01-0.051-0.01c-0.061-0.01-0.111-0.01-0.174-0.01c-5.545-0.621-10.539-3.082-14.334-6.776
						c-0.253-0.275-0.6-0.458-1.006-0.49c-0.834-0.069-1.577,0.561-1.639,1.396l-0.051,0.701c0.886,0.926,1.842,1.781,2.859,2.554
						c3.571,2.798,7.842,4.711,12.493,5.454c0.996,0.161,2.014,0.274,3.043,0.314l0.162-1.464
						C144.895,107.864,144.305,107.123,143.5,107.01z M139.318,55.787v1.201c0,0.844,0.682,1.525,1.525,1.525
						c0.846,0,1.527-0.681,1.527-1.525v-1.781C141.334,55.34,140.316,55.533,139.318,55.787z"/>
				</g>
				<g>
					<path fill="#363639" d="M173.613,82.574c0,7.487-2.99,14.295-7.863,19.268l-0.031-0.427c-0.072-0.834-0.814-1.464-1.639-1.393
						c-0.844,0.062-1.475,0.803-1.402,1.637l0.213,2.736c-3.57,2.789-7.854,4.702-12.514,5.445l-0.133-1.19
						c-0.09-0.835-0.844-1.445-1.688-1.354c-0.834,0.102-1.436,0.855-1.344,1.689l0.133,1.159c-0.438,0.032-0.896,0.042-1.342,0.042
						c-0.459,0-0.916-0.01-1.363-0.042l0.162-1.465c0.092-0.814-0.498-1.556-1.303-1.668c0.824,0.082,1.658,0.124,2.504,0.124
						c13.541,0,24.557-11.019,24.557-24.56c0-13.542-11.018-24.559-24.557-24.559c-13.541,0-24.561,11.018-24.561,24.559
						c0,6.918,2.88,13.174,7.499,17.64c-0.254-0.274-0.6-0.457-1.006-0.489c-0.835-0.069-1.578,0.561-1.639,1.395l-0.051,0.702
						c-4.863-4.964-7.854-11.771-7.854-19.248c0-12.91,8.923-23.796,20.928-26.787v1.2c0,0.845,0.68,1.526,1.525,1.526
						c0.844,0,1.525-0.681,1.525-1.526v-1.78c1.189-0.163,2.402-0.244,3.633-0.244s2.441,0.081,3.631,0.244
						c1.037,0.133,2.055,0.326,3.051,0.581C164.701,58.778,173.613,69.654,173.613,82.574z"/>
				</g>
			</g>
		</g>
		<g>
			<g>
				<g>
					<path fill="#363639" d="M146.004,68.352c-7.844,0-14.234,6.379-14.234,14.223s6.391,14.233,14.234,14.233
						s14.232-6.389,14.232-14.233S153.848,68.352,146.004,68.352z M146.004,93.754c-6.166,0-11.182-5.015-11.182-11.181
						s5.016-11.17,11.182-11.17c6.164,0,11.18,5.005,11.18,11.17S152.168,93.754,146.004,93.754z"/>
				</g>
			</g>
		</g>
	</g>
	<g>
		<g>
			<g>
				<path fill="#23A7B8" d="M149.635,41.605v13.601c-1.191-0.163-2.4-0.244-3.631-0.244c-1.232,0-2.443,0.081-3.633,0.244V41.605
					H149.635z"/>
			</g>
			<g>
				<path fill="#363639" d="M152.686,40.08v15.707c-0.996-0.254-2.014-0.447-3.051-0.58V41.606h-7.264v15.382
					c0,0.844-0.682,1.525-1.527,1.525c-0.844,0-1.525-0.681-1.525-1.525V40.08c0-0.844,0.682-1.526,1.525-1.526h10.316
					C152.006,38.554,152.686,39.236,152.686,40.08z"/>
			</g>
		</g>
	</g>
	<g>
		<g>
			<g>
				<path fill="#363639" d="M149.959,17.484h-7.914c-2.676,0-4.854,2.178-4.854,4.854v14.374c0,1.669,0.846,3.133,2.127,4.008
					c0.773,0.54,1.721,0.844,2.727,0.844h7.914c1.008,0,1.955-0.303,2.727-0.844c1.283-0.875,2.127-2.338,2.127-4.008V22.338
					C154.813,19.662,152.637,17.484,149.959,17.484z M140.244,22.338c0-0.998,0.805-1.802,1.801-1.802h7.914
					c0.998,0,1.803,0.805,1.803,1.802v14.374c0,0.998-0.805,1.8-1.803,1.8h-7.914c-0.996,0-1.801-0.803-1.801-1.8V22.338z"/>
			</g>
			<g>
				<path fill="#FD7D89" d="M151.762,22.338v14.374c0,0.998-0.805,1.8-1.803,1.8h-7.914c-0.996,0-1.801-0.803-1.801-1.8V22.338
					c0-0.998,0.805-1.802,1.801-1.802h7.914C150.957,20.536,151.762,21.34,151.762,22.338z"/>
			</g>
		</g>
	</g>
	<g>
		<g>
			<g>
				<g>
					<g>
						<path fill="#FD7D89" d="M146.004,58.015c-13.543,0-24.561,11.018-24.561,24.559c0,6.918,2.88,13.174,7.498,17.641
							c3.795,3.694,8.792,6.155,14.334,6.776c0.063,0,0.113,0,0.174,0.01c0.021,0,0.031,0,0.051,0.01
							c0.824,0.082,1.658,0.124,2.504,0.124c13.539,0,24.557-11.018,24.557-24.559C170.561,69.033,159.543,58.015,146.004,58.015z
							 M146.004,96.807c-7.844,0-14.234-6.388-14.234-14.233c0-7.843,6.391-14.223,14.234-14.223s14.232,6.38,14.232,14.223
							C160.236,90.418,153.848,96.807,146.004,96.807z"/>
					</g>
					<g>
						<path fill="#363639" d="M144.801,108.679l-0.162,1.464l-2.816,25.465l-0.184,1.699c-0.082,0.772-0.744,1.354-1.518,1.354
							c-0.051,0-0.111,0-0.172-0.013c-0.834-0.091-1.436-0.842-1.344-1.677l0.154-1.363l2.838-25.779l0.162-1.486
							c0.082-0.772,0.732-1.353,1.516-1.353c0.061,0,0.111,0,0.174,0.01c0.02,0,0.029,0,0.051,0.01
							C144.305,107.123,144.895,107.864,144.801,108.679z"/>
					</g>
				</g>
			</g>
			<g>
				<g>
					<g>
						<path fill="#363639" d="M140.957,143.472l-0.154,1.363l-9.846,89.231c-0.082,0.774-0.744,1.364-1.517,1.364h-12.065
							c-0.428,0-0.834-0.184-1.119-0.489c-0.295-0.313-0.438-0.742-0.407-1.158l3.226-40.909l0.233-3.053l3.541-44.987l0.132-1.646
							c0.071-0.793,0.743-1.405,1.537-1.405h0.112c0.833,0.071,1.464,0.804,1.393,1.649l-0.111,1.402l-3.664,46.515l-3.224,41.029
							h9.055l9.665-87.543l0.184-1.699c0.08-0.773,0.732-1.354,1.516-1.354c0.061,0,0.111,0,0.172,0.012
							C140.447,141.886,141.049,142.639,140.957,143.472z"/>
					</g>
				</g>
			</g>
			<g>
				<g>
					<g>
						<path fill="#363639" d="M129.338,101.365l-0.234,3.01l-2.461,31.233l-0.133,1.657c-0.061,0.763-0.672,1.354-1.425,1.396
							c-0.03,0.01-0.07,0.01-0.101,0.01c-0.041,0-0.082,0-0.122-0.01c-0.835-0.062-1.465-0.795-1.394-1.64l0.112-1.413l2.664-33.787
							l0.051-0.701c0.062-0.835,0.805-1.464,1.639-1.395c0.406,0.031,0.752,0.214,1.006,0.489
							C129.216,100.51,129.369,100.928,129.338,101.365z"/>
					</g>
				</g>
			</g>
			<g>
				<g>
					<g>
						<path fill="#363639" d="M127.935,232.917c-0.285-0.346-0.712-0.539-1.171-0.539h-6.053c-0.813,0-1.495,0.652-1.526,1.464
							l-0.051,1.588l-1.413,41.213c-0.031,0.805,0.569,1.486,1.362,1.567c0.051,0.01,0.102,0.01,0.163,0.01
							c0.732,0,1.363-0.528,1.496-1.262l7.304-41.528l0.224-1.262C128.351,233.721,128.23,233.263,127.935,232.917z
							 M121.515,254.942l0.671-19.512h2.768L121.515,254.942z"/>
					</g>
					<g>
						<polygon fill="#23A7B8" points="124.954,235.431 121.515,254.942 122.186,235.431 						"/>
					</g>
				</g>
			</g>
			<g>
				<g>
					<g>
						<path fill="#363639" d="M120.719,192.877h-6.835c-0.843,0-1.526-0.684-1.526-1.527c0-0.842,0.684-1.525,1.526-1.525h6.835
							c0.843,0,1.525,0.684,1.525,1.525C122.245,192.193,121.562,192.877,120.719,192.877z"/>
					</g>
				</g>
			</g>
			<g>
				<g>
					<g>
						<path fill="#363639" d="M112.095,183.963h-2.218c-1.832,0-3.327,1.484-3.327,3.316v8.412c0,1.833,1.495,3.316,3.327,3.316
							h2.218c1.831,0,3.316-1.483,3.316-3.316v-8.412C115.411,185.447,113.926,183.963,112.095,183.963z M112.359,195.691
							c0,0.144-0.122,0.265-0.265,0.265h-2.217c-0.154,0-0.275-0.121-0.275-0.265v-8.412c0-0.144,0.122-0.265,0.275-0.265h2.217
							c0.143,0,0.265,0.121,0.265,0.265V195.691z"/>
					</g>
					<g>
						<path fill="#FD7D89" d="M112.359,187.279v8.412c0,0.144-0.122,0.265-0.265,0.265h-2.217c-0.154,0-0.275-0.121-0.275-0.265
							v-8.412c0-0.144,0.122-0.265,0.275-0.265h2.217C112.237,187.015,112.359,187.136,112.359,187.279z"/>
					</g>
				</g>
			</g>
		</g>
		<g>
			<g>
				<g>
					<g>
						<path fill="#363639" d="M152.025,138.662c-0.063,0-0.123,0.01-0.174,0.01c-0.029,0-0.061,0-0.092-0.01
							c-0.732-0.042-1.342-0.601-1.424-1.354l-0.182-1.699l-2.809-25.465l-0.133-1.158c-0.092-0.835,0.51-1.587,1.344-1.689
							c0.844-0.091,1.598,0.519,1.688,1.354l0.133,1.19l2.84,25.77l0.152,1.363C153.461,137.816,152.861,138.57,152.025,138.662z"/>
					</g>
				</g>
			</g>
			<g>
				<g>
					<g>
						<polygon fill="#88D9E3" points="172.982,232.674 163.939,232.674 154.232,144.835 166.074,144.835 169.758,191.645 						"/>
					</g>
					<g>
						<path fill="#363639" d="M176.156,234.077c0.041,0.427-0.111,0.845-0.396,1.16c-0.285,0.304-0.691,0.489-1.119,0.489h-12.076
							c-0.773,0-1.424-0.59-1.516-1.365l-9.879-89.526l-0.152-1.363c-0.092-0.833,0.508-1.585,1.354-1.677
							c0.061-0.012,0.111-0.012,0.172-0.012c0.773,0,1.426,0.581,1.506,1.354l0.184,1.699l9.707,87.839h9.043l-3.225-41.029
							l-3.684-46.81l-0.111-1.403c-0.072-0.845,0.559-1.578,1.404-1.637c0.041,0,0.082-0.012,0.121-0.012
							c0.773,0,1.445,0.612,1.516,1.405l0.133,1.647l3.561,45.284l0.244,3.051L176.156,234.077z"/>
					</g>
				</g>
			</g>
			<g>
				<g>
					<g>
						<path fill="#363639" d="M168.518,137.021c0.07,0.835-0.561,1.578-1.395,1.64H167c-0.793,0-1.465-0.601-1.525-1.406
							l-0.133-1.647l-2.451-31.213l-0.213-2.736c-0.072-0.834,0.559-1.576,1.402-1.637c0.824-0.072,1.566,0.558,1.639,1.393
							l0.031,0.427l2.654,33.767L168.518,137.021z"/>
					</g>
				</g>
			</g>
			<g>
				<g>
					<g>
						<path fill="#363639" d="M172.871,235.727l-0.051-1.578c-0.031-0.824-0.703-1.475-1.527-1.475h-6.051
							c-0.449,0-0.877,0.193-1.172,0.539c-0.285,0.345-0.406,0.803-0.336,1.252l0.225,1.262l7.305,41.535
							c0.133,0.734,0.773,1.263,1.504,1.263c0.053,0,0.104-0.011,0.154-0.011c0.803-0.081,1.395-0.772,1.373-1.564L172.871,235.727z
							 M167.063,235.727h2.756l0.672,19.512L167.063,235.727z"/>
					</g>
					<g>
						<polygon fill="#23A7B8" points="170.49,255.238 167.063,235.727 169.818,235.727 						"/>
					</g>
				</g>
			</g>
			<g>
				<g>
					<g>
						<path fill="#363639" d="M178.125,193.173h-6.836c-0.844,0-1.527-0.684-1.527-1.526s0.684-1.526,1.527-1.526h6.836
							c0.844,0,1.527,0.684,1.527,1.526S178.969,193.173,178.125,193.173z"/>
					</g>
				</g>
			</g>
			<g>
				<g>
					<g>
						<path fill="#363639" d="M182.139,184.257h-2.219c-1.83,0-3.314,1.497-3.314,3.328v8.403c0,1.829,1.484,3.326,3.314,3.326
							h2.219c1.83,0,3.316-1.497,3.316-3.326v-8.403C185.457,185.754,183.969,184.257,182.139,184.257z M182.404,195.988
							c0,0.141-0.123,0.273-0.266,0.273h-2.217c-0.143,0-0.266-0.133-0.266-0.273v-8.403c0-0.143,0.123-0.275,0.266-0.275h2.217
							c0.143,0,0.266,0.133,0.266,0.275V195.988z"/>
					</g>
					<g>
						<path fill="#FD7D89" d="M182.404,187.585v8.403c0,0.141-0.123,0.273-0.266,0.273h-2.217c-0.143,0-0.266-0.133-0.266-0.273
							v-8.403c0-0.143,0.123-0.275,0.266-0.275h2.217C182.281,187.31,182.404,187.442,182.404,187.585z"/>
					</g>
				</g>
			</g>
		</g>
	</g>
	<g>
		<g>
			<g>
				<path fill="#363639" d="M165.475,137.256l-0.133-1.647h-38.699l-0.133,1.657c-0.061,0.763-0.672,1.354-1.425,1.396H167
					C166.207,138.662,165.537,138.061,165.475,137.256z M124.629,141.783c0.833,0.071,1.464,0.804,1.393,1.649l-0.111,1.402h11.832
					l0.184-1.698c0.08-0.773,0.732-1.353,1.516-1.353H124.629L124.629,141.783z M165.475,137.256l-0.133-1.647h-38.699l-0.133,1.657
					c-0.061,0.763-0.672,1.354-1.425,1.396H167C166.207,138.662,165.537,138.061,165.475,137.256z M124.629,141.783
					c0.833,0.071,1.464,0.804,1.393,1.649l-0.111,1.402h11.832l0.184-1.698c0.08-0.773,0.732-1.353,1.516-1.353H124.629
					L124.629,141.783z M165.475,137.256l-0.133-1.647h-38.699l-0.133,1.657c-0.061,0.763-0.672,1.354-1.425,1.396H167
					C166.207,138.662,165.537,138.061,165.475,137.256z M126.022,143.432l-0.111,1.402h11.832l0.184-1.698
					c0.08-0.773,0.732-1.353,1.516-1.353h-14.812C125.462,141.854,126.093,142.587,126.022,143.432z M187.785,135.609H104.22
					c-2.461,0-4.475,2.013-4.475,4.475v0.276c0,2.462,2.014,4.474,4.475,4.474h83.565c2.473,0,4.477-2.012,4.477-4.474v-0.276
					C192.262,137.622,190.258,135.609,187.785,135.609z M189.209,140.36c0,0.783-0.641,1.423-1.424,1.423H104.22
					c-0.782,0-1.423-0.64-1.423-1.423v-0.276c0-0.783,0.641-1.422,1.423-1.422h83.565c0.783,0,1.424,0.639,1.424,1.422V140.36
					L189.209,140.36z M124.629,141.783c0.833,0.071,1.464,0.804,1.393,1.649l-0.111,1.402h11.832l0.184-1.698
					c0.08-0.773,0.732-1.353,1.516-1.353H124.629L124.629,141.783z M165.475,137.256l-0.133-1.647h-38.699l-0.133,1.657
					c-0.061,0.763-0.672,1.354-1.425,1.396H167C166.207,138.662,165.537,138.061,165.475,137.256z M124.629,141.783
					c0.833,0.071,1.464,0.804,1.393,1.649l-0.111,1.402h11.832l0.184-1.698c0.08-0.773,0.732-1.353,1.516-1.353H124.629
					L124.629,141.783z M165.475,137.256l-0.133-1.647h-38.699l-0.133,1.657c-0.061,0.763-0.672,1.354-1.425,1.396H167
					C166.207,138.662,165.537,138.061,165.475,137.256z"/>
			</g>
			<g>
				<path fill="#23A7B8" d="M189.209,140.084v0.276c0,0.783-0.641,1.423-1.424,1.423H104.22c-0.782,0-1.423-0.64-1.423-1.423v-0.276
					c0-0.783,0.641-1.422,1.423-1.422h20.643c0.04,0.01,0.08,0.01,0.121,0.01c0.031,0,0.072,0,0.102-0.01h26.674
					c0.031,0.01,0.063,0.01,0.092,0.01c0.051,0,0.111-0.01,0.174-0.01h35.76C188.568,138.662,189.209,139.301,189.209,140.084z"/>
			</g>
			<g>
				<polygon fill="#88D9E3" points="137.742,144.835 128.078,232.378 119.023,232.378 122.247,191.349 125.911,144.835 				"/>
			</g>
			<g>
				<path fill="#88D9E3" d="M141.598,109.83l-2.838,25.779h-12.117l2.462-31.233C132.676,107.173,136.947,109.086,141.598,109.83z"
					/>
			</g>
			<g>
				<path fill="#88D9E3" d="M165.342,135.609h-12.125l-2.84-25.77c4.66-0.743,8.943-2.656,12.514-5.444L165.342,135.609z"/>
			</g>
		</g>
	</g>
</g>
</svg>
