<?xml version="1.0" encoding="utf-8"?>
<!-- Generator: Adobe Illustrator 13.0.0, SVG Export Plug-In . SVG Version: 6.00 Build 14948)  -->
<!DOCTYPE svg PUBLIC "-//W3C//DTD SVG 1.1//EN" "http://www.w3.org/Graphics/SVG/1.1/DTD/svg11.dtd">
<svg version="1.1" id="Layer_1" xmlns="http://www.w3.org/2000/svg" xmlns:xlink="http://www.w3.org/1999/xlink" x="0px" y="0px"
	 width="300px" height="300px" viewBox="0 0 300 300" enable-background="new 0 0 300 300" xml:space="preserve">
<path fill="#454545" d="M264.729,67.819c-11.529,4.12-35.389,10.711-70.035,10.711s-58.506-6.592-70.035-10.711
	c-3.891-1.39-7.978,1.501-7.929,5.633c0.011,0.925,0.025,1.922,0.045,2.971c-30.544-0.855-51.686-6.821-61.947-10.487
	c-2.449-0.877-5.175-0.499-7.289,1.01c-2.104,1.502-3.343,3.943-3.313,6.53c0.215,18.03,1.617,53.176,8.598,85.976
	c9.693,45.559,70.109,67.508,70.717,67.717c0.211,0.072,0.432,0.107,0.65,0.107c0.23,0,0.461-0.039,0.682-0.119
	c0.851-0.309,18.577-6.807,36.278-19.914c17.042,12.09,33.527,18.027,33.543,18.033c0.03-0.012,59.905-21.563,69.411-66.242
	c7.074-33.246,8.358-69.298,8.553-85.582C272.707,69.321,268.62,66.429,264.729,67.819 M143.342,123.974
	c14.103-14.584,26.608-3.913,32.356,2.953c2.091,2.498,1.594,6.244-1.066,8.123c-15.978,11.279-26.824,2.114-31.558-3.734
	C141.314,129.14,141.396,125.985,143.342,123.974 M130.461,173.65c-1.816-0.369-3.653-0.568-5.504-0.568
	c-11.588,0-22.533,7.191-30.82,20.248c-0.227,0.357-0.576,0.602-0.987,0.695c-0.41,0.09-0.831,0.018-1.188-0.209
	c-0.732-0.467-0.951-1.441-0.485-2.176c8.888-14.002,20.778-21.713,33.483-21.713c1.305,0,2.604,0.098,3.895,0.264
	C129.355,171.361,129.892,172.516,130.461,173.65 M124.191,223.139c-6.578-2.545-58.826-23.963-67.455-64.52
	c-6.907-32.462-8.297-67.309-8.51-85.19c-0.016-1.298,0.581-2.474,1.636-3.227c1.063-0.759,2.384-0.94,3.62-0.5
	c10.512,3.756,32.175,9.874,63.38,10.725c0.472,18.262,2.229,49.509,8.42,78.606c0.509,2.393,1.17,4.715,1.951,6.975
	c-0.756-0.049-1.515-0.08-2.276-0.08c-14.123,0-27.214,8.371-36.861,23.57c-1.646,2.596-0.875,6.047,1.721,7.695
	c0.904,0.574,1.932,0.871,2.979,0.871c0.407,0,0.818-0.047,1.227-0.137c1.454-0.324,2.693-1.195,3.492-2.455
	c7.527-11.859,17.273-18.393,27.443-18.393c2.772,0,5.523,0.508,8.215,1.473c6.405,10.543,15.424,19.268,24.59,26.207
	C142.625,215.734,127.527,221.854,124.191,223.139 M229.014,173.422c-9.268,14.6-21.759,22.641-35.171,22.641
	c-12.517,0-24.401-7.133-33.465-20.08c-1.132-1.617-0.738-3.848,0.879-4.98s3.849-0.74,4.98,0.879
	c7.688,10.982,17.49,17.029,27.605,17.029c10.878,0,21.224-6.861,29.132-19.32c1.059-1.668,3.269-2.162,4.936-1.104
	C229.578,169.545,230.072,171.754,229.014,173.422 M246.313,131.315c-4.733,5.848-15.58,15.013-31.557,3.734
	c-2.661-1.879-3.159-5.625-1.067-8.123c5.749-6.866,18.254-17.536,32.356-2.953C247.991,125.985,248.074,129.14,246.313,131.315"/>
<path fill="#454545" d="M105.282,136.683c1.728-1.219,2.874-3.12,3.146-5.213c0.272-2.088-0.348-4.212-1.699-5.827
	c-4.047-4.833-10.573-10.656-18.689-10.946c-5.795-0.206-11.378,2.447-16.638,7.887c-2.629,2.718-2.794,7.013-0.385,9.99
	c2.926,3.614,9.293,9.823,18.489,9.823C94.088,142.396,99.373,140.854,105.282,136.683 M74.127,130.057
	c-1.141-1.408-1.076-3.426,0.149-4.693c4.438-4.591,9.015-6.851,13.62-6.67c6.645,0.238,12.24,5.306,15.766,9.517
	c0.646,0.771,0.93,1.746,0.801,2.743c-0.131,1.003-0.658,1.877-1.486,2.462C89.23,143.12,79.702,136.944,74.127,130.057"/>
<path fill="#454545" d="M84.364,246.085c3.479-11.137,0.088-24.767-8.428-32.439c-7.149-6.444-18.778-6.995-27.866-7.964
	c-4.3-0.457-8.97-1.147-12.407-4.013c-3.318-2.765-3.467-7.939-0.82-11.269c0.267-0.339,0.628-0.753,1.04-1.154
	c-0.283,0.892-0.219,1.874,0.372,2.786c1.235,1.897,4.497,2.04,6.017,0.363c1.376-1.521,0.913-3.912-0.683-5.111
	c-2.194-1.652-5.058-0.922-7.028,0.731c-2.776,2.329-4.17,6.015-3.554,9.598c0.634,3.686,3.89,6.107,7.181,7.417
	c3.797,1.513,7.849,1.911,11.883,2.304c2.549,0.248,5.073,0.615,7.582,1.099c-0.908-0.009-1.816-0.005-2.715,0
	c-5.306,0.03-10.612,0.059-15.916,0.019c-4.798-0.031-10.132,0.425-14.802-0.979c-2.954-0.888-5.414-2.102-7.087-4.818
	c-1.627-2.643-2.661-6.032-0.461-8.582c-0.621,1.003,0.364,2.888,1.011,3.458c1.131,1.003,2.85,1.359,4.283,0.841
	c2.688-0.972,3.935-4.569,1.76-6.691c-1.657-1.618-4.508-1.887-6.589-1.035c-3.455,1.416-4.327,4.907-3.711,8.399
	c0.397,2.245,1.581,4.553,3.171,6.169c3.272,3.319,7.959,4.011,12.396,4.339c5.637,0.421,11.284,0.317,16.926,0.307
	c11.651-0.018,24.375-1.992,32.142,8.779c6.631,9.191,9.516,22.065,4.209,32.496C83.113,249.517,83.817,247.838,84.364,246.085"/>
<path fill="#454545" d="M217.19,247.727c-2.646-11.363,1.743-24.705,10.804-31.728c7.605-5.897,19.244-5.587,28.378-5.882
	c4.322-0.138,9.03-0.481,12.67-3.084c3.514-2.512,4.045-7.661,1.65-11.177c-0.24-0.358-0.57-0.798-0.952-1.229
	c0.217,0.91,0.081,1.885-0.576,2.751c-1.372,1.801-4.636,1.702-6.028-0.082c-1.26-1.619-0.621-3.97,1.061-5.048
	c2.31-1.484,5.111-0.546,6.954,1.249c2.596,2.528,3.713,6.307,2.835,9.834c-0.905,3.629-4.331,5.804-7.71,6.866
	c-3.898,1.228-7.969,1.326-12.021,1.42c-2.56,0.058-5.105,0.238-7.642,0.534c0.906,0.058,1.811,0.13,2.708,0.201
	c5.289,0.422,10.578,0.843,15.871,1.194c4.787,0.323,10.073,1.173,14.834,0.119c3.011-0.667,5.555-1.696,7.424-4.281
	c1.818-2.516,3.1-5.818,1.095-8.524c0.545,1.045-0.577,2.853-1.265,3.374c-1.202,0.916-2.942,1.145-4.334,0.521
	c-2.608-1.167-3.586-4.848-1.26-6.803c1.771-1.492,4.635-1.549,6.647-0.546c3.341,1.668,3.952,5.214,3.081,8.651
	c-0.563,2.21-1.914,4.423-3.619,5.917c-3.509,3.068-8.234,3.412-12.682,3.411c-5.653,0.003-11.277-0.519-16.903-0.946
	c-11.618-0.879-24.16-3.789-32.702,6.38c-7.294,8.676-11.121,21.3-6.602,32.096C218.184,251.241,217.606,249.515,217.19,247.727"/>
</svg>
