<svg width="24" height="24" xmlns="http://www.w3.org/2000/svg">

 <g>
  <title>background</title>
  <rect fill="none" id="canvas_background" height="402" width="582" y="-1" x="-1"/>
 </g>
 <g>
  <title>Layer 1</title>
  <path fill="#25c485" id="svg_2" d="m12,14c2.764,0 5,-2.238 5,-5s-2.236,-5 -5,-5s-5,2.238 -5,5s2.236,5 5,5zm0,-8c1.654,0 3,1.346 3,3s-1.346,3 -3,3s-3,-1.346 -3,-3s1.346,-3 3,-3z"/>
  <path fill="#25c485" id="svg_3" d="m20,15c1.381,0 2.5,-1.117 2.5,-2.5c0,-1.381 -1.119,-2.5 -2.5,-2.5c-1.382,0 -2.5,1.119 -2.5,2.5c0,1.383 1.118,2.5 2.5,2.5zm0,-4c0.827,0 1.5,0.673 1.5,1.5s-0.673,1.5 -1.5,1.5s-1.5,-0.673 -1.5,-1.5s0.673,-1.5 1.5,-1.5z"/>
  <path fill="#25c485" id="svg_4" d="m20,15.59c-1.331,0 -2.332,0.406 -2.917,0.969c-1.115,-0.918 -2.878,-1.559 -5.083,-1.559c-2.266,0 -3.995,0.648 -5.092,1.564c-0.596,-0.565 -1.608,-0.975 -2.908,-0.975c-2.188,0 -3.5,1.091 -3.5,2.183c0,0.545 1.312,1.092 3.5,1.092c0.604,0 1.146,-0.051 1.623,-0.133c-0.01,0.09 -0.04,0.18 -0.04,0.27c0,1 2.405,2 6.417,2c3.762,0 6.417,-1 6.417,-2c0,-0.085 -0.011,-0.17 -0.021,-0.255c0.463,0.073 0.996,0.118 1.604,0.118c2.051,0 3.5,-0.547 3.5,-1.092c0,-1.092 -1.373,-2.182 -3.5,-2.182zm-16,2.273c-1.309,0 -2.068,-0.207 -2.417,-0.354c0.239,-0.405 1.003,-0.92 2.417,-0.92c1.107,0 1.837,0.351 2.208,0.706c-0.084,0.114 -0.169,0.227 -0.235,0.344c-0.452,0.119 -1.108,0.224 -1.973,0.224zm8,1.137c-2.163,0 -3.501,-0.312 -4.184,-0.561c0.521,-0.678 1.918,-1.439 4.184,-1.439c2.169,0 3.59,0.761 4.148,1.425c-0.755,0.27 -2.162,0.575 -4.148,0.575zm8,-1.137c-0.914,0 -1.546,-0.103 -1.973,-0.213c-0.072,-0.127 -0.155,-0.252 -0.248,-0.375c0.356,-0.345 1.071,-0.685 2.221,-0.685c1.324,0 2.141,0.501 2.404,0.911c-0.39,0.163 -1.205,0.362 -2.404,0.362z"/>
  <path fill="#25c485" id="svg_5" d="m4,15c1.381,0 2.5,-1.119 2.5,-2.5c0,-1.379 -1.119,-2.5 -2.5,-2.5c-1.382,0 -2.5,1.121 -2.5,2.5c0,1.381 1.118,2.5 2.5,2.5zm0,-4c0.827,0 1.5,0.673 1.5,1.5s-0.673,1.5 -1.5,1.5s-1.5,-0.673 -1.5,-1.5s0.673,-1.5 1.5,-1.5z"/>
 </g>
</svg>