<?xml version="1.0" encoding="utf-8"?>
<!-- Generator: Adobe Illustrator 13.0.0, SVG Export Plug-In . SVG Version: 6.00 Build 14948)  -->
<!DOCTYPE svg PUBLIC "-//W3C//DTD SVG 1.1//EN" "http://www.w3.org/Graphics/SVG/1.1/DTD/svg11.dtd">
<svg version="1.1" id="Layer_1" xmlns="http://www.w3.org/2000/svg" xmlns:xlink="http://www.w3.org/1999/xlink" x="0px" y="0px"
	 width="300px" height="300px" viewBox="0 0 300 300" enable-background="new 0 0 300 300" xml:space="preserve">
<path fill="#DF3131" d="M75.422,169.563c0,0-3.327-19.752,7.989-34.798c10.597-14.09,34.838-23.824,63.775-15.901
	c44.021,12.052,63.366-1.148,67.602-21.728c1.245-6.046,7.58-7.377,13.397-3.551c13.002,8.554,26.724,37.248-1.292,56.814
	c2.422,8.474-3.905,43.175-63.223,24.412C133.406,194.784,80.229,204.91,75.422,169.563"/>
<path fill="#0096BE" d="M114.139,110.801c0,0-6.222-11.283,8.581-21.393c-7.582-15.524,4.333-69.684,61.019-45.854
	c19.857-3.25,49.601,3.685,52.714,33.578c23.263-1.447,26.356,25.274,23.828,31.412c-2.526,6.137-12.152,3.651-13.237,2.568
	c-1.083-1.083-10.506-24.171-24.565-25.342c-9.31-0.776-12.249,5.972-15.756,13.98c-0.779,1.781-5.707,26.877-57.913,12.955
	C148.81,112.706,136.221,106.779,114.139,110.801"/>
<path fill="#F6BA00" d="M106.899,113.086c1.75-0.44-5.417-15.526,9.746-25.636c-5.776-23.468,5.952-47.187,31.458-52.713
	c-11.553-1.083-24.3-6.347-53.906,6.291C73.256,35.611,38.956,55.47,36.79,84.715c-11.193,10.47-17.331,21.663-8.303,34.661
	c-6.5,7.222-12.723,57.483,41.074,46.291C68.117,154.473,69.006,122.635,106.899,113.086"/>
<path fill="#00928C" d="M248.079,114.991c0,0,7.5,23.016-12.671,36.463c0.723,9.025-5.342,18.784-11.12,22.755
	c13.72-0.721,17.488-2.447,17.488-2.447s17.867,13.601,27.254,4.213s3.609-25.362,0-28.251
	C277.163,133.169,272.455,115.619,248.079,114.991"/>
<path fill="#6B2A6C" d="M145.106,191.586c0.173-1.128,10.833-5.054,19.497-10.831c11.105,5.961,42.527,9.973,55.603-2.167
	c9.388,0.724,20.221-1.083,20.221-1.083s4.012,5.133,11.191,5.416c3.227,0.128,3.249,41.883-60.657,39.717
	C184.821,226.97,139.69,226.97,145.106,191.586"/>
<path fill="#A53938" d="M190.96,259.465c0,0-19.137-9.748-16.971-30.328c-13.358-1.445-36.129-4.986-34.323-36.038
	c-2.527,0.722-11.812,3.048-11.812,3.048s10.392,51.404,60.577,64.763C188.698,260.953,196.621,262.601,190.96,259.465"/>
</svg>
