<?xml version="1.0" encoding="utf-8"?>
<!-- Generator: Adobe Illustrator 13.0.0, SVG Export Plug-In . SVG Version: 6.00 Build 14948)  -->
<!DOCTYPE svg PUBLIC "-//W3C//DTD SVG 1.1//EN" "http://www.w3.org/Graphics/SVG/1.1/DTD/svg11.dtd">
<svg version="1.1" id="Layer_1" xmlns="http://www.w3.org/2000/svg" xmlns:xlink="http://www.w3.org/1999/xlink" x="0px" y="0px"
	 width="300px" height="300px" viewBox="0 0 300 300" enable-background="new 0 0 300 300" xml:space="preserve">
<g>
	<g>
		<path fill="#004A3F" d="M65.479,63.516c0.181-0.876,0.42-1.749,0.729-2.617c1.096-3.076,2.887-5.701,5.131-7.771
			c-1.295-3.095-1.486-6.664-0.271-10.074c2.589-7.268,10.578-11.06,17.846-8.471c3.503,1.247,6.196,3.753,7.759,6.825
			c6.987-10.832,20.734-15.854,33.403-11.341c14.782,5.266,22.499,21.518,17.233,36.302c-0.729,2.049-1.672,3.961-2.79,5.722
			c3.487,2.939,5.463,7.354,5.309,11.936c1.654,0.221,3.311,0.615,4.946,1.197c12.596,4.487,19.171,18.336,14.685,30.933
			s-18.335,19.171-30.932,14.685c-4.541-1.618-8.299-4.452-11.038-8.006c-8.098,8.807-20.969,12.422-32.947,8.155
			c-7.008-2.496-12.548-7.276-16.08-13.203c-8.2,6.874-19.725,9.348-30.532,5.498c-16.229-5.78-24.7-23.625-18.92-39.854
			C34.391,68.323,50.225,59.94,65.479,63.516z"/>
	</g>
	<g>
		<g>
			<g>
				<rect x="124.353" y="110.019" fill="#7F2E22" width="41.853" height="146.941"/>
			</g>
			<g>
				<rect x="124.353" y="110.019" fill="#57291D" width="21.251" height="146.536"/>
			</g>
			<g>
				<path fill="#7F2E22" d="M193.651,256.96v-78.958c0-4.848-3.945-8.777-8.812-8.777h-2.629c-4.867,0-8.813,3.93-8.813,8.777
					v78.958H193.651z"/>
			</g>
			<g>
				<rect x="182.633" y="110.019" fill="#57291D" width="23.604" height="146.941"/>
			</g>
			<g>
				<path fill="#7F2E22" d="M181.951,159.098h-19.908c-3.26,0-5.902-2.643-5.902-5.902c0-3.259,2.643-5.901,5.902-5.901h19.908
					c7.16,0,12.984-5.824,12.984-12.984V86.246c0-3.26,2.643-5.902,5.901-5.902c3.26,0,5.902,2.642,5.902,5.902v48.064
					C206.739,147.978,195.619,159.098,181.951,159.098z"/>
			</g>
			<g>
				<path fill="#57291D" d="M225.897,163.203h-26.526c-2.282,0-4.131-1.85-4.131-4.132c0-2.281,1.849-4.131,4.131-4.131h26.526
					c8.136,0,14.755-6.619,14.755-14.755V80.701c0-2.282,1.85-4.131,4.131-4.131c2.282,0,4.132,1.85,4.132,4.131v59.484
					C248.915,152.878,238.589,163.203,225.897,163.203z"/>
			</g>
			<g>
				<path fill="#57291D" d="M250.567,114.137h-6.384c-1.499,0-2.714-1.216-2.714-2.715s1.215-2.715,2.714-2.715h6.384
					c1.988,0,3.668-2.086,3.668-4.555v-7.271c0-1.499,1.216-2.715,2.715-2.715c1.5,0,2.715,1.216,2.715,2.715v7.271
					C259.665,109.657,255.584,114.137,250.567,114.137z"/>
			</g>
			<g>
				<path fill="#7F2E22" d="M149.352,167.704h-19.149c-12.822,0-23.254-10.432-23.254-23.253v-19.707
					c0-2.413,1.956-4.368,4.367-4.368c2.413,0,4.368,1.955,4.368,4.368v19.707c0,8.005,6.513,14.519,14.519,14.519h19.149
					c2.412,0,4.368,1.955,4.368,4.367S151.764,167.704,149.352,167.704z"/>
			</g>
			<g>
				<path fill="#57291D" d="M141.766,186.035h-12.849c-4.559,0-8.934-2.587-12.002-7.097c-2.829-4.158-4.387-9.604-4.387-15.33
					v-49.017c0-1.956,1.585-3.541,3.541-3.541c1.955,0,3.541,1.585,3.541,3.541v49.017c0,8.175,4.349,15.345,9.307,15.345h12.849
					c1.956,0,3.541,1.586,3.541,3.541C145.307,184.45,143.722,186.035,141.766,186.035z"/>
			</g>
			<g>
				<path fill="#57291D" d="M158.637,256.96v-44.99c0-5.704-4.641-10.326-10.366-10.326h-3.092c-5.726,0-10.366,4.622-10.366,10.326
					v44.99H158.637z"/>
			</g>
			<g>
				<path fill="#57291D" d="M219.831,256.96v-51.072c0-6.475-5.296-11.722-11.83-11.722h-3.528c-6.533,0-11.829,5.247-11.829,11.722
					v51.072H219.831L219.831,256.96z"/>
			</g>
			<g>
				<path fill="#57291D" d="M137.004,256.96v-58.839c0-7.459-7.003-13.505-15.642-13.505h-4.666
					c-8.639,0-15.642,6.046-15.642,13.505v58.839H137.004z"/>
			</g>
			<g>
				<path fill="#7F2E22" d="M230.887,256.96v-19.856c0-6.533-5.296-11.829-11.83-11.829h-3.528c-6.533,0-11.829,5.296-11.829,11.829
					v19.856H230.887z"/>
			</g>
		</g>
		<g>
			<g>
				<g>
					<path fill="#004A3F" d="M155.451,63.455c-1.448,0-2.858,0.153-4.221,0.443c-1.159-3.642-3.946-6.556-7.508-7.89
						c0.386-1.696,0.591-3.461,0.591-5.275c0-13.083-10.606-23.689-23.69-23.689c-8.131,0-15.302,4.099-19.568,10.34v77.734
						c1.361-1.437,2.562-3.025,3.57-4.742c4.432,3.667,10.119,5.871,16.321,5.871c10.603,0,19.7-6.439,23.596-15.621
						c3.146,2.024,6.89,3.2,10.909,3.2c11.148,0,20.186-9.038,20.186-20.187S166.6,63.455,155.451,63.455z"/>
				</g>
				<g>
					<path fill="#2A912D" d="M207.376,77.869c0.44-0.171,0.885-0.322,1.331-0.456c-0.354-0.628-0.666-1.287-0.935-1.978
						c-3.06-7.895,0.86-16.776,8.756-19.835c7.838-3.038,16.646,0.804,19.768,8.586c1.694-1.353,3.62-2.476,5.75-3.3
						c11.268-4.367,23.943,1.228,28.311,12.496c4.368,11.269-1.227,23.944-12.495,28.312c-4.002,1.551-8.18,1.844-12.102,1.075
						c-0.789,3.476-3.236,6.51-6.81,7.895c-4.78,1.853-10.059,0.167-12.951-3.781c-1.645,1.603-3.634,2.907-5.91,3.79
						c-9.059,3.511-19.247-0.987-22.758-10.045C193.82,91.568,198.317,81.38,207.376,77.869z"/>
				</g>
				<g>
					<path fill="#004A3F" d="M159.604,73.179c0.125-0.601,0.288-1.201,0.5-1.796c0.752-2.111,1.982-3.913,3.522-5.333
						c-0.89-2.125-1.021-4.574-0.187-6.915c1.777-4.988,7.261-7.591,12.249-5.815c2.404,0.856,4.253,2.577,5.325,4.685
						c4.797-7.435,14.231-10.881,22.927-7.784c10.147,3.614,15.443,14.769,11.829,24.917c-0.501,1.406-1.146,2.719-1.914,3.927
						c2.394,2.018,3.75,5.047,3.644,8.192c1.135,0.152,2.272,0.422,3.396,0.822c8.646,3.08,13.158,12.585,10.079,21.231
						c-3.08,8.646-12.585,13.158-21.231,10.079c-3.116-1.11-5.695-3.056-7.576-5.495c-5.558,6.045-14.393,8.526-22.614,5.598
						c-4.811-1.713-8.612-4.994-11.037-9.063c-5.629,4.719-13.538,6.416-20.957,3.774c-11.14-3.968-16.954-16.216-12.986-27.356
						C138.265,76.478,149.133,70.725,159.604,73.179z"/>
				</g>
				<g>
					<path fill="#2A912D" d="M126.059,63.959c0.566,0,1.128,0.023,1.684,0.067c-0.122-0.854-0.187-1.726-0.187-2.614
						c0-10.145,8.225-18.368,18.369-18.368c10.071,0,18.248,8.106,18.365,18.15c2.479-0.777,5.116-1.197,7.851-1.197
						c14.479,0,26.217,11.738,26.217,26.216c0,14.48-11.737,26.217-26.217,26.217c-5.141,0-9.936-1.481-13.983-4.038
						c-2.386,3.541-6.434,5.871-11.025,5.871c-6.142,0-11.309-4.169-12.83-9.831c-2.532,1.077-5.318,1.674-8.243,1.674
						c-11.64,0-21.074-9.436-21.074-21.074C104.984,73.394,114.419,63.959,126.059,63.959z"/>
				</g>
				<g>
					<path fill="#68BD37" d="M170.484,89.605c-2.438-0.58-4.877-0.454-7.105,0.244c-3.409-7.215-10.751-12.208-19.261-12.208
						c-10.361,0-18.992,7.402-20.897,17.206c-2.301-2.443-5.316-4.266-8.825-5.102c-4.735-1.129-9.479-0.25-13.341,2.083v30.497
						c1.537,0.929,3.24,1.64,5.08,2.078c6.889,1.642,13.796-0.959,17.978-6.114c1.546,4.616,5.365,8.354,10.449,9.566
						c6.162,1.469,12.34-1.211,15.606-6.232c0.991,2.684,3.262,4.839,6.254,5.553c4.756,1.134,9.53-1.803,10.663-6.559
						c0.372-1.562,0.303-3.124-0.123-4.561c6.233,0.199,11.956-3.994,13.458-10.297C182.138,98.556,177.689,91.323,170.484,89.605z"
						/>
				</g>
				<g>
					<path fill="#68BD37" d="M88.949,99.102c1.808-0.431,3.616-0.337,5.269,0.181c2.526-5.349,7.971-9.051,14.279-9.051
						c7.681,0,14.08,5.487,15.492,12.757c1.706-1.813,3.941-3.163,6.542-3.783c3.511-0.837,7.028-0.185,9.892,1.545v22.609
						c-1.14,0.688-2.403,1.216-3.767,1.541c-5.107,1.217-10.228-0.712-13.328-4.534c-1.146,3.423-3.978,6.194-7.747,7.093
						c-4.567,1.089-9.147-0.897-11.569-4.621c-0.735,1.99-2.419,3.589-4.637,4.117c-3.525,0.841-7.065-1.336-7.906-4.862
						c-0.275-1.158-0.224-2.315,0.091-3.381c-4.62,0.147-8.862-2.961-9.976-7.634C80.31,105.736,83.608,100.375,88.949,99.102z"/>
				</g>
			</g>
			<g>
				<path fill="#2A912D" d="M110.11,97.415c2.032,0,3.68-1.647,3.68-3.68h-7.359C106.431,95.768,108.078,97.415,110.11,97.415z"/>
			</g>
			<g>
				<path fill="#2A912D" d="M171.159,101.096c2.033,0,3.681-1.647,3.681-3.681h-7.36
					C167.479,99.448,169.127,101.096,171.159,101.096z"/>
			</g>
			<g>
				<path fill="#2A912D" d="M133.324,109.558c2.032,0,3.68-1.648,3.68-3.681h-7.36C129.644,107.909,131.291,109.558,133.324,109.558
					z"/>
			</g>
			<g>
				<path fill="#2A912D" d="M158.362,117.944c2.032,0,3.681-1.648,3.681-3.681h-7.361
					C154.682,116.296,156.33,117.944,158.362,117.944z"/>
			</g>
			<g>
				<path fill="#2A912D" d="M110.11,117.944c2.032,0,3.68-1.648,3.68-3.681h-7.359C106.431,116.296,108.078,117.944,110.11,117.944z
					"/>
			</g>
			<g>
				<path fill="#2A912D" d="M96.505,109.558c2.033,0,3.681-1.648,3.681-3.681h-7.36C92.825,107.909,94.473,109.558,96.505,109.558z"
					/>
			</g>
			<g>
				<path fill="#68BD37" d="M164.241,76.444c2.032,0,3.68-1.647,3.68-3.68h-7.36C160.561,74.797,162.208,76.444,164.241,76.444z"/>
			</g>
			<g>
				<path fill="#68BD37" d="M136.012,72.764c2.032,0,3.681-1.647,3.681-3.68h-7.361C132.331,71.117,133.979,72.764,136.012,72.764z"
					/>
			</g>
			<g>
				<path fill="#68BD37" d="M184.47,76.444c2.032,0,3.68-1.647,3.68-3.68h-7.36C180.789,74.797,182.437,76.444,184.47,76.444z"/>
			</g>
			<g>
				<path fill="#68BD37" d="M119.398,84.344c2.032,0,3.681-1.647,3.681-3.68h-7.361C115.718,82.696,117.366,84.344,119.398,84.344z"
					/>
			</g>
			<g>
				<path fill="#68BD37" d="M149.552,61.223c2.032,0,3.68-1.647,3.68-3.68h-7.36C145.871,59.575,147.52,61.223,149.552,61.223z"/>
			</g>
			<g>
				<path fill="#68BD37" d="M173.14,86.743c2.032,0,3.68-1.648,3.68-3.68h-7.36C169.459,85.095,171.106,86.743,173.14,86.743z"/>
			</g>
			<g>
				<path fill="#2A912D" d="M145.871,92.071c2.032,0,3.681-1.647,3.681-3.679h-7.361C142.191,90.424,143.839,92.071,145.871,92.071z
					"/>
			</g>
			<g>
				<g>
					<path fill="#68BD37" d="M259.748,82.437c2.033,0,3.681-1.648,3.681-3.68h-7.36C256.068,80.789,257.716,82.437,259.748,82.437z"
						/>
				</g>
				<g>
					<path fill="#68BD37" d="M227.839,82.437c2.033,0,3.681-1.648,3.681-3.68h-7.36C224.159,80.789,225.807,82.437,227.839,82.437z"
						/>
				</g>
				<g>
					<path fill="#68BD37" d="M241.379,72.735c2.033,0,3.681-1.647,3.681-3.681h-7.36C237.699,71.087,239.347,72.735,241.379,72.735z
						"/>
				</g>
				<g>
					<path fill="#68BD37" d="M243.816,96.414c2.032,0,3.68-1.646,3.68-3.68h-7.36C240.136,94.768,241.784,96.414,243.816,96.414z"/>
				</g>
			</g>
		</g>
	</g>
</g>
</svg>
