<?xml version="1.0" encoding="utf-8"?>
<!-- Generator: Adobe Illustrator 16.0.0, SVG Export Plug-In . SVG Version: 6.00 Build 0)  -->
<!DOCTYPE svg PUBLIC "-//W3C//DTD SVG 1.1//EN" "http://www.w3.org/Graphics/SVG/1.1/DTD/svg11.dtd">
<svg version="1.1" id="Layer_1" xmlns="http://www.w3.org/2000/svg" xmlns:xlink="http://www.w3.org/1999/xlink" x="0px" y="0px"
	 width="24px" height="24px" viewBox="0 0 24 24" enable-background="new 0 0 24 24" xml:space="preserve">
<g>
	<path fill="#747474" d="M12.026,8.071c-2.157,0-3.944,1.756-3.944,3.943c0,2.188,1.756,3.944,3.944,3.944
		c2.188,0,3.943-1.787,3.943-3.944C15.97,9.858,14.184,8.071,12.026,8.071z M12.026,14.542c-1.386,0-2.526-1.141-2.526-2.527
		c0-1.386,1.14-2.526,2.526-2.526c1.387,0,2.527,1.14,2.527,2.526C14.554,13.401,13.413,14.542,12.026,14.542z"/>
	<circle fill="#747474" cx="16.124" cy="7.979" r="0.894"/>
	<path fill="#747474" d="M18.435,5.668c-0.801-0.832-1.94-1.263-3.234-1.263H8.853c-2.681,0-4.468,1.787-4.468,4.468v6.316
		c0,1.325,0.432,2.465,1.294,3.297c0.832,0.801,1.941,1.202,3.204,1.202h6.286c1.325,0,2.435-0.433,3.234-1.202
		c0.832-0.801,1.265-1.941,1.265-3.266V8.873C19.668,7.578,19.235,6.469,18.435,5.668z M18.313,15.22
		c0,0.955-0.34,1.725-0.896,2.249c-0.554,0.523-1.324,0.801-2.248,0.801H8.883c-0.924,0-1.694-0.277-2.249-0.801
		c-0.555-0.555-0.833-1.325-0.833-2.28V8.873c0-0.924,0.277-1.695,0.833-2.25c0.523-0.523,1.325-0.801,2.249-0.801h6.348
		c0.924,0,1.693,0.277,2.249,0.832c0.523,0.555,0.832,1.325,0.832,2.219V15.22L18.313,15.22z"/>
</g>
</svg>
