<?xml version="1.0" encoding="utf-8"?>
<!-- Generator: Adobe Illustrator 16.0.0, SVG Export Plug-In . SVG Version: 6.00 Build 0)  -->
<!DOCTYPE svg PUBLIC "-//W3C//DTD SVG 1.1//EN" "http://www.w3.org/Graphics/SVG/1.1/DTD/svg11.dtd">
<svg version="1.1" id="Layer_1" xmlns="http://www.w3.org/2000/svg" xmlns:xlink="http://www.w3.org/1999/xlink" x="0px" y="0px"
	 width="577px" height="136px" viewBox="0 0 577 136" enable-background="new 0 0 577 136" xml:space="preserve">
<polygon fill="#9A3333" points="10.667,4.857 36.797,4.857 52.86,31.202 68.925,4.857 95.054,4.857 95.054,79.823 70.103,79.823 
	70.103,42.661 52.86,69.327 52.432,69.327 35.19,42.661 35.19,79.823 10.667,79.823 "/>
<path fill="#9A3333" d="M189.298,4.858h36.625c13.28,0,21.739,3.32,26.988,8.567c4.497,4.499,6.854,10.067,6.854,17.777v0.214
	c0,10.924-5.676,18.527-14.779,22.918l17.458,25.488h-28.595l-14.136-21.418h-5.354v21.418h-25.059V4.858z M225.174,40.519
	c5.997,0,9.638-2.677,9.638-7.281v-0.216c0-4.818-3.749-7.174-9.532-7.174h-10.923v14.671H225.174z"/>
<path fill="#9A3333" d="M259.659,68.577l13.386-15.956c8.139,6.211,17.457,8.781,26.237,8.781c4.498,0,6.426-1.179,6.426-3.214
	v-0.213c0-2.141-2.355-3.319-10.389-4.926c-16.813-3.428-31.59-8.247-31.59-24.097V28.74c0-14.244,11.137-25.273,31.805-25.273
	c14.457,0,25.166,3.426,33.841,10.28l-12.208,16.922c-7.069-5.141-15.529-7.391-22.49-7.391c-3.747,0-5.463,1.286-5.463,3.106v0.214
	c0,2.035,2.036,3.32,9.962,4.819c19.168,3.534,32.02,9.102,32.02,24.203v0.215c0,15.741-12.959,25.379-33.091,25.379
	C282.897,81.214,269.191,76.93,259.659,68.577"/>
<path fill="#9A3333" d="M361.503,4.323h24.845l31.593,75.5h-27.201l-3.963-10.069h-26.237l-3.855,10.069h-26.774L361.503,4.323z
	 M380.566,51.978l-6.855-18.206l-6.854,18.206H380.566z"/>
<polygon fill="#9A3333" points="421.046,4.857 446.106,4.857 446.106,58.404 481.341,58.404 481.341,79.823 421.046,79.823 "/>
<path fill="#9A3333" d="M512.934,4.323h24.844l31.594,75.5H542.17l-3.965-10.069h-26.236l-3.855,10.069h-26.772L512.934,4.323z
	 M531.994,51.978l-6.854-18.206l-6.854,18.206H531.994z"/>
<polygon fill="#9A3333" points="129.754,4.033 154.6,4.033 186.191,79.533 158.99,79.533 155.027,69.466 172.681,52.033 
	148.794,52.033 142.159,33.952 135.192,52.033 111.968,52.198 128.791,69.466 124.935,79.533 98.163,79.533 "/>
<path fill="#9A3333" d="M140.029,108.152c0-7.75,4.789-12.39,13.526-12.39c7.356,0,11.355,2.765,13.131,8.443
	c0.247,0.74,0.149,1.036-0.592,1.283l-1.53,0.542c-0.642,0.148-1.037-0.05-1.284-0.593c-1.382-4.393-4.147-6.367-9.725-6.367
	c-6.467,0-9.923,3.308-9.923,9.034v11.75c0,5.677,3.555,9.033,9.923,9.033c5.676,0,8.441-2.024,9.824-6.516
	c0.248-0.593,0.692-0.789,1.284-0.643l1.531,0.593c0.591,0.246,0.79,0.643,0.591,1.233c-1.776,5.729-5.774,8.639-13.229,8.639
	c-8.638,0-13.526-4.639-13.526-12.391V108.152z"/>
<path fill="#9A3333" d="M178.833,108.152c0-7.75,4.838-12.39,13.575-12.39c8.69,0,13.528,4.64,13.528,12.39v11.652
	c0,7.752-4.838,12.391-13.528,12.391c-8.737,0-13.575-4.639-13.575-12.391V108.152z M202.382,108.152
	c0-5.773-3.506-9.081-9.974-9.081c-6.465,0-10.02,3.308-10.02,9.081v11.652c0,5.777,3.555,9.084,10.02,9.084
	c6.467,0,9.974-3.307,9.974-9.084V108.152z"/>
<path fill="#9A3333" d="M245.433,96.454c0.741,0,0.988,0.248,0.988,0.988v33.076c0,0.738-0.247,0.986-0.988,0.986h-1.58
	c-0.493,0-0.839-0.197-1.036-0.542l-15.749-22.61c-0.691-1.036-1.481-2.419-2.37-4.146c-0.889-1.729-1.433-2.666-1.581-2.914h-0.196
	c0,0.248,0.098,1.433,0.294,3.507c0.149,2.073,0.249,3.801,0.249,5.232v20.487c0,0.641-0.298,0.986-0.939,0.986h-1.53
	c-0.741,0-0.988-0.248-0.988-0.986V97.442c0-0.74,0.247-0.988,0.988-0.988h1.579c0.445,0,0.791,0.148,1.038,0.494l15.353,22.165
	c0.74,1.088,1.629,2.518,2.617,4.296c0.938,1.777,1.531,2.813,1.778,3.16h0.147c0-0.347-0.099-1.58-0.296-3.752
	c-0.198-2.123-0.296-3.951-0.296-5.431V97.393c0-0.642,0.345-0.939,0.986-0.939H245.433z"/>
<path fill="#9A3333" d="M260.494,108.152c0-7.75,4.787-12.39,13.526-12.39c7.355,0,11.355,2.765,13.133,8.443
	c0.246,0.74,0.147,1.036-0.593,1.283l-1.53,0.542c-0.642,0.148-1.037-0.05-1.284-0.593c-1.383-4.393-4.147-6.367-9.726-6.367
	c-6.466,0-9.921,3.308-9.921,9.034v11.75c0,5.677,3.554,9.033,9.921,9.033c5.678,0,8.441-2.024,9.825-6.516
	c0.245-0.593,0.69-0.789,1.282-0.643l1.531,0.593c0.592,0.246,0.79,0.643,0.592,1.233c-1.777,5.729-5.774,8.639-13.23,8.639
	c-8.637,0-13.526-4.639-13.526-12.391V108.152z"/>
<path fill="#9A3333" d="M321.316,96.454c0.642,0,0.938,0.346,0.938,0.988v1.382c0,0.643-0.297,0.987-0.938,0.987H303.89v12.244
	h15.204c0.645,0,0.939,0.346,0.939,0.986v1.383c0,0.64-0.295,0.986-0.939,0.986H303.89v12.735h18.068
	c0.643,0,0.938,0.346,0.938,0.989v1.383c0,0.641-0.296,0.986-0.938,0.986h-20.636c-0.74,0-0.986-0.248-0.986-0.986V97.442
	c0-0.74,0.246-0.988,0.986-0.988H321.316z"/>
<path fill="#9A3333" d="M350.199,96.454c6.911,0,11.157,4.099,11.157,10.96s-4.246,10.91-11.157,10.91h-10.615v12.194
	c0,0.739-0.195,0.987-0.937,0.987h-1.629c-0.74,0-0.987-0.248-0.987-0.987V97.442c0-0.74,0.247-0.988,0.987-0.988H350.199z
	 M349.902,115.016c4.79,0,7.752-2.862,7.752-7.603c0-4.739-2.962-7.601-7.752-7.601h-10.318v15.203H349.902z"/>
<path fill="#9A3333" d="M395.473,96.454c0.74,0,0.988,0.248,0.988,0.988v1.382c0,0.74-0.248,0.987-0.988,0.987H385.5v30.707
	c0,0.738-0.246,0.986-0.988,0.986h-1.627c-0.741,0-0.988-0.248-0.988-0.986V99.811h-9.973c-0.74,0-0.987-0.247-0.987-0.987v-1.382
	c0-0.74,0.247-0.988,0.987-0.988H395.473z"/>
<path fill="#9A3333" d="M420.106,95.762c6.716,0,10.418,2.321,12.983,7.603c0.299,0.543,0.101,0.99-0.541,1.284l-1.529,0.691
	c-0.643,0.247-0.891,0.197-1.284-0.443c-1.976-3.95-4.741-5.728-9.629-5.728c-5.873,0-9.081,2.318-9.081,6.516
	c0.195,3.062,1.578,4.541,4.442,5.381c1.975,0.644,3.209,0.841,5.776,1.088c2.912,0.346,4.443,0.542,6.861,1.432
	c1.235,0.441,2.172,0.988,2.914,1.628c1.431,1.283,2.616,3.605,2.616,6.614c0,6.519-4.741,10.367-13.429,10.367
	c-7.059,0-11.059-2.715-13.379-8.49c-0.197-0.642,0-1.084,0.592-1.332l1.531-0.545c0.543-0.196,0.986,0,1.284,0.593
	c1.826,4.294,5.133,6.417,9.972,6.417c6.565,0,9.824-2.318,9.824-6.909c-0.198-3.062-1.482-4.491-4.099-5.334
	c-1.875-0.59-3.109-0.738-5.528-0.986c-1.53-0.147-2.814-0.344-3.751-0.492c-0.938-0.148-2.074-0.493-3.407-0.939
	c-1.333-0.443-2.369-0.986-3.11-1.628c-1.53-1.286-2.765-3.555-2.765-6.666C407.371,99.712,412.062,95.762,420.106,95.762"/>
</svg>
