<svg width="100" height="100" xmlns="http://www.w3.org/2000/svg">

 <g>
  <title>background</title>
  <rect fill="none" id="canvas_background" height="402" width="582" y="-1" x="-1"/>
 </g>
 <g>
  <title>Layer 1</title>
  <circle stroke="#25c485" id="svg_2" r="45" fill="none" cy="49.768519" cx="50"/>
  <path stroke="#25c485" id="svg_4" fill="none" d="m40.779,46.814l0,6.371c0,0 6.169,-0.008 8.682,-0.008c-1.36,4.129 -3.476,6.378 -8.682,6.378c-5.268,0 -9.38,-4.278 -9.38,-9.556c0,-5.276 4.112,-9.555 9.38,-9.555c2.786,0 4.584,0.98 6.234,2.347c1.32,-1.323 1.21,-1.512 4.571,-4.691c-2.854,-2.601 -6.644,-4.186 -10.806,-4.186c-8.868,0 -16.057,7.202 -16.057,16.084c0,8.884 7.188,16.085 16.057,16.085c13.256,0 16.495,-11.562 15.421,-19.271l-15.42,0l0,0.002z"/>
  <polygon stroke="#25c485" id="svg_5" points="69.71399688720703,46.9015186727047 69.71399688720703,41.32751736044884 65.73899841308594,41.32751736044884 65.73899841308594,46.9015186727047 60.016998291015625,46.9015186727047 60.016998291015625,50.88251766562462 65.73899841308594,50.88251766562462 65.73899841308594,56.61651882529259 69.71399688720703,56.61651882529259 69.71399688720703,50.88251766562462 75.2770004272461,50.88251766562462 75.2770004272461,46.9015186727047 " fill="none"/>
 </g>
</svg>