<?xml version="1.0" encoding="utf-8"?>
<!-- Generator: Adobe Illustrator 13.0.0, SVG Export Plug-In . SVG Version: 6.00 Build 14948)  -->
<!DOCTYPE svg PUBLIC "-//W3C//DTD SVG 1.1//EN" "http://www.w3.org/Graphics/SVG/1.1/DTD/svg11.dtd">
<svg version="1.1" id="Layer_1" xmlns="http://www.w3.org/2000/svg" xmlns:xlink="http://www.w3.org/1999/xlink" x="0px" y="0px"
	 width="300px" height="50px" viewBox="0 0 300 50" enable-background="new 0 0 300 50" xml:space="preserve">
<g>
	<polygon fill="#993333" points="4.924,6.178 18.657,6.178 27.097,20.022 35.538,6.178 49.269,6.178 49.269,45.569 36.157,45.569 
		36.157,26.043 27.097,40.055 26.872,40.055 17.811,26.043 17.811,45.569 4.924,45.569 	"/>
	<path fill="#993333" d="M98.791,6.178h19.245c6.978,0,11.424,1.745,14.181,4.503c2.363,2.362,3.601,5.289,3.601,9.341v0.113
		c0,5.739-2.982,9.735-7.765,12.042l9.173,13.394H122.2l-7.429-11.256h-2.813V45.57H98.791V6.178z M117.641,24.917
		c3.151,0,5.066-1.407,5.066-3.827v-0.111c0-2.533-1.971-3.771-5.01-3.771h-5.739v7.709H117.641z"/>
	<path fill="#993333" d="M135.762,39.661l7.035-8.385c4.275,3.265,9.172,4.613,13.786,4.613c2.362,0,3.376-0.617,3.376-1.688V34.09
		c0-1.126-1.236-1.745-5.459-2.59c-8.835-1.801-16.6-4.332-16.6-12.66v-0.112c0-7.485,5.853-13.281,16.713-13.281
		c7.597,0,13.225,1.801,17.784,5.402l-6.418,8.89c-3.713-2.699-8.157-3.882-11.816-3.882c-1.969,0-2.869,0.675-2.869,1.631v0.113
		c0,1.07,1.069,1.746,5.233,2.534c10.073,1.856,16.824,4.782,16.824,12.718v0.111c0,8.273-6.807,13.337-17.388,13.337
		C147.973,46.301,140.77,44.05,135.762,39.661"/>
	<path fill="#993333" d="M189.277,5.897h13.056l16.602,39.672H204.64l-2.081-5.289h-13.787l-2.027,5.289h-14.068L189.277,5.897z
		 M199.295,30.938l-3.603-9.567l-3.601,9.567H199.295z"/>
	<polygon fill="#993333" points="220.565,6.178 233.735,6.178 233.735,34.315 252.248,34.315 252.248,45.569 220.565,45.569 	"/>
	<path fill="#993333" d="M268.849,5.897h13.055l16.602,39.672h-14.294l-2.08-5.289h-13.787l-2.026,5.289h-14.069L268.849,5.897z
		 M278.866,30.938l-3.603-9.567l-3.601,9.567H278.866z"/>
	<polygon fill="#993333" points="65.208,44.943 68.032,36.082 58.382,29.308 70.122,29.308 74.029,17.567 77.938,29.308 
		89.677,29.308 80.026,36.082 83.048,45.569 97.158,45.569 80.557,5.897 67.502,5.897 50.899,45.569 64.968,45.569 	"/>
</g>
</svg>
