<?xml version="1.0" encoding="utf-8"?>
<!-- Generator: Adobe Illustrator 13.0.0, SVG Export Plug-In . SVG Version: 6.00 Build 14948)  -->
<!DOCTYPE svg PUBLIC "-//W3C//DTD SVG 1.1//EN" "http://www.w3.org/Graphics/SVG/1.1/DTD/svg11.dtd">
<svg version="1.1" id="Layer_1" xmlns="http://www.w3.org/2000/svg" xmlns:xlink="http://www.w3.org/1999/xlink" x="0px" y="0px"
	 width="24px" height="24px" viewBox="0 0 24 24" enable-background="new 0 0 24 24" xml:space="preserve">
<g>
	<title>background</title>
	<rect id="canvas_background" x="-1" y="-1" fill="none" width="582" height="402"/>
</g>
<g>
	<title>Layer 1</title>
	<path id="svg_2" fill="#25C485" d="M9.106,6.646c0.281-0.283,0.438-0.66,0.438-1.06S9.388,4.809,9.104,4.525L7.519,2.939
		c-0.566-0.566-1.556-0.566-2.121,0L4.959,3.373l3.711,3.71L9.106,6.646z"/>
	<path id="svg_3" fill="#25C485" d="M14.963,13.377l3.703,3.703l0.437-0.432c0.285-0.285,0.441-0.662,0.441-1.063
		s-0.156-0.777-0.439-1.061l-1.586-1.586c-0.565-0.566-1.555-0.566-2.121,0L14.963,13.377z"/>
	<path id="svg_4" fill="#25C485" d="M6.604,15.439c3.394,3.394,6.033,4.105,7.649,4.105c1.81,0,2.796-0.845,3.056-1.105l0.354-0.354
		l-3.702-3.71l-0.65,0.649c-0.188,0.189-0.518,0.188-0.707,0L7.019,9.44C6.925,9.345,6.873,9.22,6.873,9.086
		c0-0.134,0.051-0.259,0.146-0.354l0.65-0.649L3.961,4.375L3.606,4.729C3.446,4.89-0.169,8.665,6.604,15.439z"/>
</g>
</svg>
