<?xml version="1.0" encoding="utf-8"?>
<!-- Generator: Adobe Illustrator 16.0.0, SVG Export Plug-In . SVG Version: 6.00 Build 0)  -->
<!DOCTYPE svg PUBLIC "-//W3C//DTD SVG 1.1//EN" "http://www.w3.org/Graphics/SVG/1.1/DTD/svg11.dtd">
<svg version="1.1" id="Layer_1" xmlns="http://www.w3.org/2000/svg" xmlns:xlink="http://www.w3.org/1999/xlink" x="0px" y="0px"
	 width="500px" height="500px" viewBox="0 0 500 500" enable-background="new 0 0 500 500" xml:space="preserve">
<path fill="none" stroke="#B5B5B6" stroke-width="8" stroke-miterlimit="10" d="M161.859,384.69c0,0-117.567-226.468,55.688-306.909
	c0,0,14.852-43.933,37.75-53.214l7.42,53.214c0,0,40.224,20.419,54.454,38.984c14.229,18.564,79.819,81.057,79.819,81.057v23.517
	l-28.461,21.86c0,0-31.561-18.147-55.696-20.008c-24.123-1.852-45.785,24.751-60.021,4.95c0,0,102.104,100.245,87.873,156.55
	H161.859z M377.589,451.398H114.497v23.076h263.092V451.398z M377.589,423.601c0-16.354-13.261-29.608-29.603-29.608H144.1
	c-16.346,0-29.603,13.254-29.603,29.608v18.277h263.092V423.601z"/>
</svg>
