<?xml version="1.0" encoding="utf-8"?>
<!-- Generator: Adobe Illustrator 13.0.0, SVG Export Plug-In . SVG Version: 6.00 Build 14948)  -->
<!DOCTYPE svg PUBLIC "-//W3C//DTD SVG 1.0//EN" "http://www.w3.org/TR/2001/REC-SVG-20010904/DTD/svg10.dtd">
<svg version="1.0" id="Layer_1" xmlns="http://www.w3.org/2000/svg" xmlns:xlink="http://www.w3.org/1999/xlink" x="0px" y="0px"
	 width="1700px" height="1269.988px" viewBox="0 0 1700 1269.988" enable-background="new 0 0 1700 1269.988" xml:space="preserve">
<g id="background">
	<g>
		<path fill="#25C485" d="M889.345,1049.745c5.233-2.21,9.349-6.056,9.349-6.056S894.388,1046.701,889.345,1049.745z"/>
		<path fill="#25C485" d="M851.59,1067.592c17.576-15.472,18.988-14.756,22.502-11.96c1.924,1.55,9.133-2.191,15.254-5.887
			c-3.703,1.556-7.962,2.3-11.735,0.265c-9.141-4.91-17.577,2.111-23.203,7.743c-5.624,5.616-50.616-18.991-70.302-34.448
			C784.104,1023.304,834.012,1083.063,851.59,1067.592z"/>
		<path fill="#25C485" d="M827.752,1040.938c-4.584-2.299-7.795-4.277-7.795-4.277
			C822.188,1038.586,824.869,1039.962,827.752,1040.938z"/>
		<path fill="#25C485" d="M856.518,1046.504c10.545-6.329,26.015-2.813,26.015-2.813s-18.988-6.334-25.312-3.517
			c-4.99,2.215-18.712,4.406-29.469,0.765C836.281,1045.222,849.654,1050.611,856.518,1046.504z"/>
		<path fill="#25C485" d="M976.006,440.577c2.563-2.286-90.539,63.753-37.89,132.063c39.462,46.329,127.978,0.915,139.985-40.267
			c8.686-29.769-7.719-46.329-24.019-51.479c-36.218-11.433-65.198,12.875-65.198,36.041c0,0,22.305-45.475,61.771-24.882
			c0,0,25.437,14.411,11.146,42.035c-12.866,24.881-68.633,60.912-105.528,30.022C919.387,533.236,944.27,468.884,976.006,440.577z"
			/>
		<path fill="#25C485" d="M1045.432,507.413c-6.89-8.439-21.108-8.229-31.746,0.476c-10.652,8.694-13.687,22.583-6.783,31.031
			c6.895,8.426,21.112,8.219,31.755-0.484C1049.297,529.745,1052.328,515.848,1045.432,507.413z"/>
		<polygon fill="#25C485" points="1090.284,265.337 1084.708,254.051 1079.143,265.337 1066.688,267.146 1075.7,275.925 
			1073.576,288.323 1084.708,282.476 1095.848,288.323 1093.72,275.925 1102.73,267.146 		"/>
		<polygon fill="#25C485" points="986.904,280.303 988.42,279.502 989.939,280.303 989.655,278.611 990.879,277.404 
			989.178,277.159 988.42,275.613 987.657,277.159 985.954,277.404 987.188,278.611 		"/>
		<polygon fill="#25C485" points="994.156,266.948 995.681,266.152 997.201,266.948 996.906,265.261 998.139,264.059 
			996.442,263.806 995.681,262.269 994.913,263.806 993.215,264.059 994.448,265.261 		"/>
		<polygon fill="#25C485" points="978.244,291.74 979.771,290.939 981.291,291.74 980.992,290.038 982.23,288.842 980.529,288.592 
			979.771,287.051 979.003,288.592 977.307,288.842 978.538,290.038 		"/>
		<polygon fill="#25C485" points="979.003,285.321 980.529,284.525 982.045,285.321 981.756,283.635 982.987,282.429 
			981.291,282.184 980.529,280.647 979.768,282.184 978.064,282.429 979.296,283.635 		"/>
		<polygon fill="#25C485" points="975.939,295.128 974.239,294.893 973.48,293.342 972.723,294.893 971.021,295.128 972.248,296.33 
			971.953,298.027 973.48,297.225 974.996,298.027 974.706,296.33 		"/>
		<polygon fill="#25C485" points="973.033,309.713 972.273,308.178 971.511,309.713 969.813,309.958 971.039,311.16 
			970.752,312.852 972.273,312.061 973.794,312.852 973.502,311.16 974.734,309.958 		"/>
		<polygon fill="#25C485" points="987.066,299.412 988.299,298.224 986.596,297.97 985.837,296.434 985.08,297.97 983.375,298.224 
			984.604,299.412 984.321,301.108 985.837,300.308 987.355,301.108 		"/>
		<polygon fill="#25C485" points="993.359,300.039 992.599,301.574 990.891,301.82 992.125,303.026 991.831,304.718 
			993.359,303.918 994.875,304.718 994.587,303.026 995.814,301.82 994.114,301.574 		"/>
		<polygon fill="#25C485" points="979.213,302.068 980.439,300.867 978.745,300.618 977.98,299.077 977.22,300.618 975.518,300.867 
			976.749,302.068 976.459,303.762 977.98,302.961 979.502,303.762 		"/>
		<polygon fill="#25C485" points="969.018,302.847 967.424,303.497 965.987,302.551 966.109,304.275 964.773,305.346 
			966.443,305.755 967.048,307.356 967.957,305.892 969.673,305.811 968.563,304.511 		"/>
		<polygon fill="#25C485" points="968.068,295.831 966.869,294.596 966.624,296.307 965.076,297.061 966.624,297.818 
			966.869,299.52 968.068,298.295 969.766,298.592 968.962,297.074 969.766,295.538 		"/>
		<polygon fill="#25C485" points="986.076,295.049 986.982,293.588 988.699,293.503 987.592,292.197 988.044,290.528 
			986.448,291.184 985.016,290.246 985.139,291.961 983.801,293.035 985.469,293.442 		"/>
		<polygon fill="#25C485" points="991.227,281.67 989.788,280.728 989.92,282.442 988.579,283.521 990.247,283.932 990.855,285.538 
			991.762,284.068 993.473,283.983 992.366,282.677 992.818,281.02 		"/>
		<polygon fill="#25C485" points="960.191,305.845 958.742,306.768 957.157,306.099 957.585,307.763 956.455,309.053 
			958.175,309.166 959.057,310.636 959.692,309.035 961.367,308.644 960.038,307.555 		"/>
		<polygon fill="#25C485" points="996.753,270.888 995.155,271.549 993.718,270.61 993.846,272.314 992.509,273.39 994.178,273.804 
			994.782,275.411 995.688,273.951 997.407,273.865 996.296,272.551 		"/>
		<polygon fill="#25C485" points="990.604,307.281 989.004,307.937 987.573,306.989 987.699,308.709 986.359,309.784 
			988.027,310.198 988.638,311.8 989.542,310.336 991.26,310.25 990.148,308.945 		"/>
		<polygon fill="#25C485" points="982.495,308.865 980.896,309.515 979.458,308.573 979.592,310.289 978.252,311.367 
			979.914,311.781 980.529,313.379 981.429,311.918 983.148,311.834 982.033,310.534 		"/>
		<polygon fill="#25C485" points="948.795,319.502 947.205,320.146 945.768,319.199 945.895,320.914 944.554,321.994 
			946.225,322.403 946.829,324.001 947.736,322.539 949.452,322.464 948.345,321.155 		"/>
		<polygon fill="#25C485" points="953.896,314.161 952.64,315.34 950.96,314.972 951.689,316.527 950.818,318.013 952.534,317.8 
			953.674,319.081 953.998,317.399 955.571,316.706 954.068,315.882 		"/>
		<polygon fill="#25C485" points="967.471,309.011 966.214,310.185 964.531,309.812 965.268,311.372 964.393,312.852 
			966.104,312.645 967.241,313.932 967.571,312.239 969.141,311.556 967.637,310.723 		"/>
		<polygon fill="#25C485" points="1009.342,443.155 1012.447,448.461 1014.778,442.759 1020.793,441.444 1016.095,437.473 
			1016.695,431.345 1011.463,434.597 1005.821,432.123 1007.287,438.099 1003.197,442.702 		"/>
		<polygon fill="#25C485" points="449.432,488.987 452.537,494.303 454.867,488.61 460.881,487.286 456.18,483.318 456.784,477.188 
			451.553,480.434 445.909,477.96 447.377,483.95 443.287,488.544 		"/>
		<polygon fill="#25C485" points="531.488,513.906 534.598,519.222 536.92,513.524 542.938,512.205 538.232,508.233 
			538.839,502.103 533.607,505.349 527.963,502.874 529.439,508.86 525.347,513.463 		"/>
		<polygon fill="#25C485" points="1083.73,449.45 1086.84,454.762 1089.163,449.063 1095.184,447.749 1090.479,443.771 
			1091.084,437.636 1085.859,440.888 1080.211,438.424 1081.679,444.402 1077.592,448.998 		"/>
		<polygon fill="#25C485" points="1050.618,442.047 1054.291,446.98 1055.976,441.063 1061.803,439.093 1056.697,435.662 
			1056.621,429.503 1051.783,433.302 1045.905,431.463 1048.023,437.255 1044.458,442.27 		"/>
		<polygon fill="#25C485" points="1118.392,417.808 1121.5,423.117 1123.822,417.416 1129.843,416.101 1125.14,412.124 
			1125.748,405.997 1120.515,409.24 1114.869,406.771 1116.345,412.754 1112.249,417.354 		"/>
		<polygon fill="#25C485" points="728.273,779.502 722.629,777.033 724.104,783.019 720.011,787.617 726.152,788.065 
			729.262,793.371 731.588,787.679 737.605,786.359 732.9,782.387 733.506,776.261 		"/>
		<polygon fill="#25C485" points="846.472,805.657 849.579,810.973 851.904,805.271 857.92,803.961 853.22,799.982 853.83,793.857 
			848.594,797.094 842.954,794.62 844.42,800.605 840.336,805.208 		"/>
		<polygon fill="#25C485" points="929.689,848.403 931.599,851.684 933.031,848.167 936.735,847.352 933.84,844.916 
			934.217,841.146 930.996,843.14 927.521,841.618 928.42,845.298 925.906,848.13 		"/>
		<polygon fill="#25C485" points="728.991,837.441 732.095,842.752 734.427,837.061 740.442,835.741 735.739,831.759 
			736.344,825.629 731.114,828.88 725.472,826.411 726.938,832.395 722.854,836.994 		"/>
		<polygon fill="#25C485" points="719.561,740.588 722.667,745.894 724.99,740.202 731.01,738.882 726.303,734.91 726.911,728.787 
			721.676,732.03 716.037,729.556 717.505,735.531 713.416,740.141 		"/>
		<polygon fill="#25C485" points="1287.041,301.485 1281.402,299.012 1282.876,304.995 1278.786,309.596 1284.924,310.043 
			1288.032,315.359 1290.366,309.657 1296.373,308.343 1291.669,304.365 1292.275,298.238 		"/>
		<polygon fill="#25C485" points="1036.037,441.516 1033.045,440.2 1033.83,443.372 1031.66,445.808 1034.914,446.048 
			1036.563,448.852 1037.793,445.84 1040.984,445.147 1038.488,443.047 1038.809,439.789 		"/>
		<polygon fill="#25C485" points="465.072,498.549 466.725,501.362 467.951,498.348 471.143,497.645 468.648,495.543 
			468.971,492.295 466.201,494.021 463.211,492.705 463.99,495.872 461.818,498.309 		"/>
		<polygon fill="#25C485" points="488.304,530.725 486.436,528.044 485.451,531.159 482.326,532.097 484.979,534.005 
			484.914,537.262 487.544,535.334 490.624,536.399 489.596,533.303 491.566,530.702 		"/>
		<polygon fill="#25C485" points="484.498,511.348 487.582,512.407 486.551,509.317 488.521,506.716 485.261,506.734 
			483.395,504.057 482.405,507.168 479.283,508.106 481.934,510.014 481.87,513.28 		"/>
		<polygon fill="#25C485" points="540.139,540.542 538.275,537.87 537.287,540.979 534.164,541.922 536.813,543.826 
			536.751,547.091 539.375,545.154 542.454,546.22 541.43,543.129 543.402,540.527 		"/>
		<polygon fill="#25C485" points="564.032,516.168 562.16,513.487 561.176,516.598 558.047,517.54 560.703,519.443 560.641,522.705 
			563.268,520.773 566.348,521.837 565.319,518.741 567.29,516.145 		"/>
		<polygon fill="#25C485" points="627.146,460.313 625.278,457.636 624.296,460.74 621.162,461.685 623.819,463.592 
			623.754,466.849 626.383,464.916 629.463,465.985 628.438,462.89 630.405,460.289 		"/>
		<polygon fill="#25C485" points="612.643,485.443 610.775,482.771 609.786,485.877 606.664,486.814 609.313,488.724 
			609.249,491.984 611.88,490.048 614.963,491.117 613.936,488.017 615.908,485.426 		"/>
		<polygon fill="#25C485" points="600.764,516.168 598.898,513.487 597.91,516.598 594.785,517.54 597.438,519.443 597.374,522.705 
			600.002,520.773 603.082,521.837 602.058,518.741 604.021,516.145 		"/>
		<polygon fill="#25C485" points="741.575,755.365 739.704,752.69 738.721,755.795 735.594,756.741 738.246,758.642 
			738.184,761.911 740.811,759.975 743.895,761.04 742.867,757.948 744.834,755.352 		"/>
		<polygon fill="#25C485" points="877.951,798.674 876.087,795.996 875.093,799.102 871.973,800.05 874.621,801.953 
			874.561,805.208 877.186,803.292 880.273,804.342 879.242,801.256 881.211,798.654 		"/>
		<polygon fill="#25C485" points="764.943,850.495 763.952,853.602 760.831,854.549 763.479,856.441 763.418,859.713 
			766.05,857.781 769.134,858.851 768.102,855.745 770.074,853.153 766.811,853.167 		"/>
		<polygon fill="#25C485" points="783.095,832.287 781.229,829.624 780.24,832.73 777.113,833.672 779.766,835.571 779.699,838.828 
			782.33,836.905 785.41,837.966 784.386,834.869 786.354,832.271 		"/>
		<polygon fill="#25C485" points="910.869,813.993 909.003,811.321 908.014,814.438 904.887,815.374 907.538,817.278 
			907.474,820.539 910.111,818.612 913.188,819.677 912.16,816.576 914.135,813.979 		"/>
		<polygon fill="#25C485" points="630.09,432.707 628.227,430.03 627.236,433.135 624.111,434.079 626.762,435.986 626.7,439.249 
			629.326,437.32 632.408,438.381 631.383,435.285 633.35,432.684 		"/>
		<polygon fill="#25C485" points="1141.297,429.678 1142.945,432.49 1144.176,429.474 1147.357,428.772 1144.869,426.67 
			1145.188,423.418 1142.416,425.139 1139.429,423.833 1140.209,427.001 1138.043,429.441 		"/>
		<polygon fill="#25C485" points="1157.9,407.896 1158.84,409.498 1159.541,407.784 1161.354,407.387 1159.941,406.191 
			1160.118,404.343 1158.542,405.318 1156.851,404.574 1157.293,406.374 1156.051,407.765 		"/>
		<polygon fill="#25C485" points="1178.771,397.292 1177.076,396.553 1177.518,398.348 1176.284,399.738 1178.136,399.87 
			1179.076,401.464 1179.765,399.749 1181.578,399.361 1180.167,398.16 1180.343,396.313 		"/>
		<polygon fill="#25C485" points="1222.871,349.359 1223.807,350.956 1224.508,349.24 1226.313,348.84 1224.895,347.648 
			1225.081,345.805 1223.509,346.776 1221.809,346.032 1222.248,347.837 1221.016,349.223 		"/>
		<polygon fill="#25C485" points="1161.719,421.382 1160.016,420.635 1160.459,422.438 1159.229,423.824 1161.075,423.956 
			1162.008,425.56 1162.712,423.843 1164.521,423.442 1163.11,422.251 1163.287,420.403 		"/>
		<polygon fill="#25C485" points="1196.971,385.56 1197.904,387.147 1198.604,385.433 1200.412,385.041 1198.998,383.845 
			1199.184,381.996 1197.605,382.973 1195.909,382.237 1196.354,384.032 1195.117,385.414 		"/>
		<polygon fill="#25C485" points="1171.933,406.982 1172.861,408.584 1173.563,406.868 1175.371,406.468 1173.966,405.275 
			1174.146,403.429 1172.568,404.409 1170.867,403.66 1171.314,405.465 1170.077,406.846 		"/>
		<polygon fill="#25C485" points="1159.111,393.316 1160.043,394.913 1160.744,393.198 1162.552,392.808 1161.133,391.609 
			1161.32,389.759 1159.751,390.739 1158.049,389.993 1158.495,391.795 1157.258,393.18 		"/>
		<polygon fill="#25C485" points="1213.178,346.437 1214.28,349.505 1216.04,346.771 1219.297,346.691 1217.241,344.156 
			1218.159,341.037 1215.112,342.201 1212.429,340.35 1212.607,343.604 1210.027,345.589 		"/>
		<polygon fill="#25C485" points="991.343,452.287 992.989,455.1 994.223,452.075 997.407,451.383 994.913,449.271 995.238,446.025 
			992.463,447.749 989.479,446.443 990.262,449.605 988.086,452.047 		"/>
		<polygon fill="#25C485" points="1034.61,423.801 1032.374,426.176 1029.151,425.667 1030.708,428.532 1029.247,431.444 
			1032.447,430.841 1034.761,433.135 1035.173,429.903 1038.083,428.424 1035.134,427.014 		"/>
		<polygon fill="#25C485" points="1116.575,448.494 1118.889,450.798 1119.309,447.557 1122.216,446.067 1119.262,444.672 
			1118.745,441.444 1116.504,443.818 1113.281,443.315 1114.836,446.189 1113.371,449.097 		"/>
		<polygon fill="#25C485" points="1141.914,407.624 1144.229,409.914 1144.646,406.681 1147.555,405.196 1144.604,403.796 
			1144.079,400.573 1141.838,402.948 1138.618,402.443 1140.184,405.309 1138.71,408.217 		"/>
		<polygon fill="#25C485" points="1234.506,295.854 1234.598,299.11 1231.968,301.033 1235.095,301.961 1236.108,305.053 
			1237.949,302.366 1241.219,302.348 1239.223,299.77 1240.222,296.665 1237.154,297.763 		"/>
		<polygon fill="#25C485" points="1175.039,382.981 1173.511,384.603 1171.311,384.26 1172.367,386.22 1171.373,388.208 
			1173.558,387.803 1175.14,389.367 1175.427,387.157 1177.407,386.14 1175.395,385.183 		"/>
		<polygon fill="#25C485" points="1224.803,323.742 1226.378,325.315 1226.667,323.106 1228.655,322.088 1226.631,321.131 
			1226.28,318.936 1224.751,320.551 1222.551,320.212 1223.615,322.163 1222.609,324.161 		"/>
		<polygon fill="#25C485" points="1240.295,331.867 1241.88,333.436 1242.168,331.23 1244.146,330.207 1242.131,329.251 
			1241.78,327.051 1240.246,328.676 1238.037,328.327 1239.107,330.282 1238.105,332.276 		"/>
		<polygon fill="#25C485" points="1245.153,253.15 1244.801,250.949 1243.267,252.561 1241.059,252.226 1242.126,254.178 
			1241.122,256.176 1243.317,255.762 1244.902,257.329 1245.186,255.124 1247.165,254.102 		"/>
		<polygon fill="#25C485" points="1265.141,305.193 1263.607,306.824 1261.402,306.476 1262.47,308.437 1261.465,310.425 
			1263.658,310.016 1265.235,311.589 1265.529,309.373 1267.512,308.361 1265.494,307.396 		"/>
		<polygon fill="#25C485" points="1237.674,281.656 1238.961,283.488 1238.188,285.581 1240.313,284.921 1242.066,286.302 
			1242.1,284.078 1243.959,282.839 1241.848,282.117 1241.244,279.973 1239.909,281.75 		"/>
		<polygon fill="#25C485" points="1201.09,360.202 1199.561,361.827 1197.354,361.484 1198.421,363.434 1197.416,365.428 
			1199.602,365.019 1201.196,366.592 1201.475,364.381 1203.461,363.358 1201.443,362.407 		"/>
		<polygon fill="#25C485" points="1214.649,334.416 1216.234,335.985 1216.521,333.771 1218.505,332.757 1216.49,331.796 
			1216.137,329.605 1214.592,331.216 1212.393,330.877 1213.465,332.832 1212.453,334.825 		"/>
		<polygon fill="#25C485" points="1259.462,294.586 1258.457,296.58 1260.652,296.17 1262.235,297.739 1262.525,295.529 
			1264.505,294.506 1262.493,293.555 1262.14,291.353 1260.605,292.971 1258.396,292.631 		"/>
		<polygon fill="#25C485" points="1280.952,287.433 1279.418,289.063 1277.219,288.725 1278.284,290.68 1277.277,292.664 
			1279.465,292.254 1281.051,293.827 1281.336,291.617 1283.323,290.596 1281.309,289.633 		"/>
		<polygon fill="#25C485" points="1183.301,402.694 1181.093,402.345 1182.161,404.307 1181.166,406.289 1183.355,405.879 
			1184.931,407.453 1185.224,405.239 1187.212,404.226 1185.188,403.269 1184.837,401.068 		"/>
		<polygon fill="#25C485" points="1187.174,379.919 1188.755,381.487 1189.043,379.277 1191.023,378.26 1189.01,377.299 
			1188.662,375.098 1187.127,376.724 1184.92,376.384 1185.99,378.345 1184.982,380.328 		"/>
		<polygon fill="#25C485" points="1244.436,319.638 1246.426,318.619 1244.414,317.663 1244.051,315.467 1242.518,317.088 
			1240.313,316.745 1241.383,318.704 1240.377,320.693 1242.564,320.279 1244.146,321.862 		"/>
		<polygon fill="#25C485" points="1234.401,260.818 1232.867,262.438 1230.663,262.094 1231.726,264.059 1230.722,266.038 
			1232.916,265.634 1234.501,267.202 1234.788,264.992 1236.77,263.97 1234.756,263.022 		"/>
		<polygon fill="#25C485" points="1264.16,269.05 1262.627,270.675 1260.42,270.331 1261.484,272.282 1260.48,274.286 
			1262.674,273.865 1264.254,275.44 1264.547,273.22 1266.527,272.202 1264.51,271.256 		"/>
		<polygon fill="#25C485" points="1252.705,284.337 1254.289,285.906 1254.573,283.69 1256.563,282.677 1254.551,281.717 
			1254.192,279.517 1252.652,281.137 1250.455,280.797 1251.521,282.754 1250.517,284.746 		"/>
		<polygon fill="#25C485" points="1205.367,365.622 1204.313,368.708 1201.172,369.594 1203.781,371.539 1203.656,374.811 
			1206.323,372.925 1209.381,374.053 1208.42,370.938 1210.441,368.373 1207.182,368.331 		"/>
		<polygon fill="#25C485" points="1266.092,319.859 1265.067,316.763 1263.23,319.459 1259.972,319.478 1261.972,322.05 
			1260.982,325.155 1264.048,324.058 1266.698,325.962 1266.595,322.701 1269.222,320.773 		"/>
		<polygon fill="#25C485" points="1071.833,430.224 1074.151,432.519 1074.564,429.29 1077.472,427.796 1074.526,426.396 
			1074.004,423.184 1071.764,425.549 1068.544,425.049 1070.099,427.919 1068.632,430.822 		"/>
		<polygon fill="#25C485" points="1110.291,432.891 1111.163,434.484 1110.341,436.104 1112.119,435.771 1113.416,437.052 
			1113.646,435.243 1115.261,434.413 1113.616,433.644 1113.33,431.854 1112.082,433.168 		"/>
		<polygon fill="#25C485" points="1055.469,427.74 1056.76,429.017 1056.984,427.218 1058.6,426.393 1056.966,425.62 
			1056.668,423.829 1055.432,425.139 1053.639,424.865 1054.504,426.449 1053.688,428.075 		"/>
		<polygon fill="#25C485" points="559.438,498.087 558.193,499.401 556.398,499.124 557.271,500.717 556.451,502.333 
			558.234,501.998 559.521,503.274 559.752,501.479 561.364,500.65 559.729,499.869 		"/>
		<polygon fill="#25C485" points="630.261,480.048 630.487,478.253 632.105,477.428 630.469,476.65 630.175,474.859 628.934,476.18 
			627.143,475.896 628.012,477.493 627.191,479.11 628.972,478.776 		"/>
		<polygon fill="#25C485" points="625.53,418.814 624.296,420.135 622.498,419.861 623.364,421.45 622.543,423.075 624.328,422.73 
			625.615,424.014 625.849,422.218 627.458,421.382 625.824,420.615 		"/>
		<polygon fill="#25C485" points="635.361,449.332 636.65,450.609 636.885,448.814 638.491,447.985 636.857,447.207 
			636.568,445.412 635.322,446.735 633.535,446.453 634.398,448.05 633.582,449.668 		"/>
		<polygon fill="#25C485" points="619.239,444.021 620.102,445.613 619.283,447.231 621.064,446.9 622.355,448.173 622.585,446.379 
			624.201,445.549 622.563,444.775 622.271,442.979 621.027,444.3 		"/>
		<polygon fill="#25C485" points="468.416,516.225 469.705,517.497 469.934,515.707 471.549,514.878 469.91,514.105 469.62,512.305 
			468.375,513.625 466.585,513.352 467.455,514.943 466.637,516.555 		"/>
		<polygon fill="#25C485" points="555.658,532.271 554.408,533.6 552.617,533.313 553.489,534.915 552.668,536.526 554.451,536.191 
			555.736,537.469 555.969,535.669 557.58,534.844 555.941,534.065 		"/>
		<polygon fill="#25C485" points="594.032,493.752 592.789,495.07 590.998,494.789 591.864,496.386 591.045,498.003 
			592.826,497.667 594.112,498.936 594.348,497.149 595.955,496.32 594.317,495.543 		"/>
		<polygon fill="#25C485" points="495.71,522.926 496.999,524.204 497.232,522.408 498.842,521.584 497.203,520.806 496.916,519.01 
			495.674,520.329 493.879,520.053 494.75,521.645 493.932,523.266 		"/>
		<polygon fill="#25C485" points="512.188,542.609 513.477,543.892 513.709,542.092 515.318,541.263 513.682,540.484 
			513.393,538.699 512.151,540.013 510.358,539.73 511.227,541.328 510.406,542.944 		"/>
		<polygon fill="#25C485" points="583.158,512.173 584.45,513.449 584.679,511.649 586.295,510.82 584.656,510.047 584.365,508.247 
			583.123,509.57 581.33,509.298 582.197,510.887 581.377,512.502 		"/>
		<polygon fill="#25C485" points="581.23,538.92 580.414,540.542 582.197,540.207 583.48,541.488 583.712,539.688 585.324,538.854 
			583.688,538.081 583.402,536.29 582.155,537.61 580.361,537.327 		"/>
		<polygon fill="#25C485" points="732.407,814.063 733.696,815.336 733.928,813.536 735.536,812.707 733.898,811.934 
			733.607,810.143 732.37,811.453 730.577,811.185 731.443,812.763 730.626,814.389 		"/>
		<polygon fill="#25C485" points="887.316,813.163 888.605,814.44 888.831,812.641 890.45,811.815 888.814,811.033 888.518,809.243 
			887.281,810.571 885.488,810.284 886.357,811.872 885.533,813.498 		"/>
		<polygon fill="#25C485" points="753.171,782.09 754.459,783.372 754.688,781.571 756.304,780.742 754.667,779.97 754.372,778.184 
			753.133,779.493 751.337,779.221 752.207,780.809 751.387,782.42 		"/>
		<polygon fill="#25C485" points="810.422,820.063 811.708,821.335 811.946,819.539 813.559,818.715 811.916,817.942 
			811.627,816.137 810.391,817.466 808.594,817.197 809.465,818.776 808.643,820.389 		"/>
		<polygon fill="#25C485" points="791.096,814.646 789.85,815.963 788.057,815.689 788.924,817.278 788.105,818.889 
			789.887,818.563 791.174,819.846 791.409,818.036 793.016,817.217 791.381,816.443 		"/>
		<polygon fill="#25C485" points="775.578,788.249 774.338,789.564 772.548,789.295 773.418,790.874 772.6,792.49 774.381,792.164 
			775.665,793.438 775.898,791.638 777.508,790.809 775.869,790.035 		"/>
		<polygon fill="#25C485" points="818.621,803.607 819.91,804.888 820.145,803.088 821.753,802.26 820.115,801.486 819.826,799.696 
			818.584,801.015 816.793,800.737 817.657,802.32 816.838,803.941 		"/>
		<polygon fill="#25C485" points="917.963,834.729 919.252,835.999 919.479,834.21 921.098,833.38 919.46,832.598 919.17,830.813 
			917.924,832.136 916.138,831.862 917.002,833.438 916.18,835.063 		"/>
		<polygon fill="#25C485" points="937.806,872.846 939.091,874.128 939.32,872.332 940.939,871.508 939.297,870.735 
			939.006,868.935 937.768,870.254 935.977,869.981 936.842,871.564 936.02,873.19 		"/>
		<polygon fill="#25C485" points="604.826,500.783 605.693,502.375 604.873,503.988 606.652,503.656 607.949,504.935 
			608.18,503.134 609.786,502.314 608.148,501.532 607.863,499.746 606.617,501.065 		"/>
		<polygon fill="#25C485" points="624.376,405.253 623.134,406.577 621.342,406.299 622.21,407.892 621.391,409.498 
			623.169,409.169 624.458,410.44 624.691,408.65 626.303,407.82 624.665,407.048 		"/>
		<polygon fill="#25C485" points="624.286,492.96 625.573,494.231 625.807,492.438 627.418,491.612 625.775,490.84 625.489,489.044 
			624.246,490.363 622.457,490.086 623.322,491.678 622.502,493.29 		"/>
		<polygon fill="#25C485" points="516.055,553.246 517.338,554.527 517.574,552.724 519.189,551.893 517.548,551.12 517.255,549.33 
			516.016,550.645 514.223,550.367 515.092,551.96 514.271,553.575 		"/>
		<polygon fill="#25C485" points="520.854,529.383 519.211,528.596 518.922,526.805 517.68,528.129 515.889,527.852 
			516.756,529.443 515.936,531.06 517.72,530.725 519.004,532.003 519.239,530.212 		"/>
		<polygon fill="#25C485" points="1135.553,441.435 1136.419,443.022 1135.597,444.645 1137.386,444.309 1138.672,445.587 
			1138.898,443.791 1140.509,442.961 1138.881,442.184 1138.587,440.398 1137.344,441.712 		"/>
		<polygon fill="#25C485" points="1095.936,419.441 1097.219,420.724 1097.455,418.924 1099.073,418.094 1097.424,417.32 
			1097.145,415.525 1095.896,416.845 1094.109,416.563 1094.974,418.16 1094.156,419.775 		"/>
		<polygon fill="#25C485" points="1093.688,424.951 1092.444,426.27 1090.652,425.987 1091.52,427.585 1090.704,429.191 
			1092.482,428.866 1093.771,430.139 1094.003,428.349 1095.618,427.519 1093.979,426.745 		"/>
		<path fill="#25C485" d="M855.646,555.258C826.514,341.037,978.77,241.67,1032.021,215.95c52.467-25.353,87.396,6.847,87.396,6.847
			c-18.854-23.988-63.395-35.989-107.961-10.278C873.929,283.997,817.283,413.34,838.333,553.33
			c19.236,127.938,120.579,166.1,241.681,82.482c130.577-90.174,229.636-42.852,229.636-42.852s-78.83-61.699-251.915,41.125
			C884.638,736.926,855.646,555.258,855.646,555.258z"/>
		<path fill="#25C485" d="M916.66,425.016c6.238-9.717-1.496-17.021-13.014-16.188c0,0-0.348-12.039-14.816-9.118
			c-14.469,2.927-3.08,32.21-3.08,32.21S910.416,434.729,916.66,425.016z"/>
		<path fill="#25C485" d="M889.14,455.459c2.614-6.24-2.581-9.661-9.142-8.021c0,0-1.419-6.902-9.463-3.751
			c-8.044,3.146,1.476,18.878,1.476,18.878S886.52,461.685,889.14,455.459z"/>
		<path fill="#25C485" d="M745.898,818.343c1.114,8.566,18.68,3.119,18.68,3.119s2.648-14.278-2.764-18.321
			c-5.415-4.053-9.992,0.17-9.986,6.928C751.827,810.067,744.792,809.771,745.898,818.343z"/>
		<path fill="#25C485" d="M769.973,883.723c0,0-1.076-6.97-9.266-4.214c-8.191,2.743,0.541,18.916,0.541,18.916
			s14.527-0.155,17.451-6.243C781.619,886.083,776.604,882.402,769.973,883.723z"/>
		<path fill="#25C485" d="M870.936,482.988c0,0-1.791-3.836-6.044-0.876c-4.255,2.954,3.507,10.811,3.507,10.811
			s8.337-2.531,8.99-6.537C878.043,482.395,874.533,481.123,870.936,482.988z"/>
		<path fill="#25C485" d="M740.811,856.217c0,0-1.791-3.837-6.041-0.882c-4.253,2.944,3.504,10.81,3.504,10.81
			s8.334-2.539,8.993-6.546C747.916,855.613,744.408,854.341,740.811,856.217z"/>
		<path fill="#25C485" d="M1110.2,187.551c68.274,36.985,37.812,99.68,8.595,120.302c-22.198,15.673-87.646,15.469-80.777-37.813
			c6.874-53.276,61.874-49.837,80.777-24.058c-8.593-29.219-70.463-44.683-91.089,13.756
			c-20.621,58.424,48.122,103.111,104.842,82.486c89.366-32.652,90.907-151.879-17.19-170.143
			c-122.021-20.624-250.922,91.092-250.922,91.092S1027.706,142.867,1110.2,187.551z M1176.43,283.719
			c-23.289,47.493-73.055,62.096-105.926,44.746c0,0,67.114,10.508,89.031-47.936c23.686-63.156-15.529-85.386-24.659-90.41
			C1153.141,195.149,1200.628,223.451,1176.43,283.719z"/>
		<path fill="#25C485" d="M1363.893,409.211c-15.194-112.979-136.167-2.354-154.099,16.13
			c-18.933,19.521-71.207,77.804-103.044,115.215c-27.921,32.803-105.843,98.683-168.715,53.313
			c-62.606-45.164-25.467-166.324,63.902-173.906c100.754-8.549,179.62-38.571,206.685-104.625
			c30.17-73.642-19.548-125.701-19.548-125.701s42.625,64.422,8.929,124.962c-38.712,69.545-122.604,85.651-190.692,91.033
			c-68.09,5.373-127.223,51.96-130.803,130.805c-3.588,78.839,111.096,191.729,254.439,0
			c143.352-191.729,202.488-163.056,213.229-112.892c10.765,50.174,15.257,193.767-99.34,329.454
			C1314.718,686.706,1382.656,548.646,1363.893,409.211z M908.758,595.402c-38.383-50.088-10.388-108.488-10.388-108.488
			c-6.396,28.302-12.882,65.724,20.539,106.829c39.73,48.857,96.8,28.772,107.759,24.659
			C1003.833,633.928,944.479,642.021,908.758,595.402z M1330.834,380.668c-14.153-10.462-31.375-4.608-31.375-4.608
			c43.066-15.999,52.595,10.763,54.439,42.139C1348.979,397.592,1344.977,391.134,1330.834,380.668z"/>
		<path fill="#25C485" d="M919.955,638.088c-39.957-27.778-61.302-73.754-54.872-129.874l-0.681-0.641
			c-6.586,57.485,12.417,104.884,53.457,133.422c0.267,0.198,19.777,14.388,52.809,14.378c12.421,0,24.657-2.676,40.59-8.186
			c14.328-5.334,23.499-9.596,28.129-13.703c-12.429,6.748-27.192,10.989-27.192,10.989
			C955.753,663.997,920.357,638.375,919.955,638.088z"/>
		<path fill="#25C485" d="M893.342,380.677c56.531-79.668,130.204-50.54,130.204-50.54c-41.973-50.545,1.718-97.656,1.718-97.656
			C955.018,275.313,918.188,329.28,893.342,380.677z M1002.014,317.221c-43.137-5.175-71.176,18.118-71.176,18.118
			c9.484-15.531,53.231-67.85,78.077-84.983C991.227,272.791,993.813,300.83,1002.014,317.221z"/>
		<path fill="#25C485" d="M964.531,401.798c26.813-11.855,47.404-9.354,63.615-9.354c16.215,0,81.07-7.479,114.75-36.794
			c-13.72,8.108-33.062,15.589-57.996,3.741c-18.415-8.745-55.511-34.302-58.627-5.612c0,0-42.404-27.44-92.922,8.109
			C905.297,382.468,910.904,422.377,964.531,401.798z M943.533,368.59c52.254-32.841,86.883-3.582,86.883-3.582
			c5.039-16.131,22.662-13.143,35.257-7.163c12.593,5.98,20.146,13.732,38.401,14.337c-11.958,4.777-44.7,13.133-70.514,11.347
			c-25.813-1.786-35.887-4.773-73.024,10.15C923.393,408.612,921.5,384.127,943.533,368.59z"/>
		<path fill="#25C485" d="M949.374,390.093c4.942,0,8.958-4.007,8.958-8.953c0-4.948-4.016-8.958-8.958-8.958
			c-4.953,0-8.958,4.01-8.958,8.958C940.416,386.088,944.421,390.093,949.374,390.093z"/>
		<path fill="#25C485" d="M1009.109,369.193c-22.103-4.184-41.818,7.169-41.818,14.335c21.505-13.142,44.799-12.544,53.163-7.766
			c8.362,4.783,15.522,2.389,21.5-4.185c5.976-6.568,23.298-2.987,29.865-0.593c-19.71-14.336-33.444-7.762-39.425,1.196
			c-35.832-22.1-68.681-4.184-68.681-4.184C983.419,361.427,995.365,364.405,1009.109,369.193z"/>
		<path fill="#25C485" d="M1061.669,371.577c-8.963-2.384-13.739,4.783-13.739,4.783c19.707,6.578,36.433-5.975,36.433-5.975
			S1070.624,373.972,1061.669,371.577z"/>
		<path fill="#25C485" d="M1282.073,526.348c0.173-0.556,0.296-0.966,0.296-1.174
			C1282.369,524.745,1282.229,525.227,1282.073,526.348z"/>
		<path fill="#25C485" d="M1218.755,457.589c-26.554,25.642-67.2,84.885-104.659,120.623
			c-31.342,29.887-55.711,45.132-55.711,45.132c55.403-30.612,107.783-83.706,142.984-126.613
			c26.49-32.295,35.934-36.668,41.457-35.201c13.441,3.59-2.57,68.631-5.262,91.935c-2.688,23.279,11.658,0.892,19.715-15.24
			c31.354-60.026,64.506-88.696,66.297-65.398c1.788,23.293-12.543,88.691-29.563,85.996c-14.347-2.257-12.788-26.518-11.938-32.474
			c-2.111,6.484-14.775,34.972,8.354,43.236c25.089,8.954,51.728-44.306,45.456-106.123c-6.273-61.818-65.087,27.964-82.188,61.326
			C1276.096,430.714,1242.215,434.938,1218.755,457.589z"/>
		<path fill="#25C485" d="M1153.37,470.393c-1.734,0-29.964,30.531-69.716,14.405c0,0,20.738,23.619,11.519,45.519
			C1117.072,500.354,1155.094,470.393,1153.37,470.393z"/>
		<path fill="#25C485" d="M1241.723,381.668l2.276-0.665c38.91-38.921,73-36.738,89.934-31.037
			C1285.298,313.733,1241.723,381.668,1241.723,381.668z"/>
		<path fill="#25C485" d="M1250.737,433.518c30.539,0,19.586,44.362,19.586,44.362c18.431-42.059,55.309-47.815,63.378-44.938
			c-9.22-12.105-28.813-5.769-40.909,4.613c6.331-24.777,4.606-41.482,4.606-41.482s-20.163,24.191-21.316,39.168
			C1270.313,427.185,1249.002,427.759,1250.737,433.518z"/>
		<path fill="#25C485" d="M1333.701,418.537c-6.922-16.131-18.441-23.614-25.93-21.318l-2.306,23.619
			C1305.467,420.838,1323.328,410.469,1333.701,418.537z"/>
		<path fill="#25C485" d="M1270.325,420.266l7.491-16.705l0.572-2.305c-11.529,2.88-24.769,13.256-25.353,21.313
			C1259.955,417.381,1270.325,420.266,1270.325,420.266z"/>
		<path fill="#25C485" d="M1220.361,491c1.838-2.889,3.524-5.735,5.024-8.511C1223.737,485.34,1222.059,488.188,1220.361,491z"/>
		<path fill="#25C485" d="M1132.045,586.766c19.018-9.219,91.039-21.313,91.039-21.313s7.484-44.363,13.244-72.59
			c-3.46,18.435-29.378,60.493-29.378,60.493s17.28-46.673,24.771-69.705c-27.084,61.063-63.372,84.106-63.372,84.106
			s27.695-36.254,52.014-76.756C1193.199,533.703,1132.045,586.766,1132.045,586.766z"/>
		<path fill="#25C485" d="M841.77,333.672c0,0,87.164-99.14,144.898-128.561c3.077-1.563-34.854,8.723-103.494,72.996
			c0,0-27.238,22.888-40.311,35.956c-10.896-29.415-104.592-141.637-265.834-116.569
			c-140.496,21.83-203.733,110.023-213.535,199.364C349.506,524.34,476.798,675.764,617.338,587.523
			c147.146-92.4,76.1-250.69-33.771-262.565c-80.622-8.715-132.913,88.238-76.263,142.721
			c56.65,54.472,119.398,3.071,105.679-41.409c-10.56-34.208-54.888-33.796-69.727-18.515c23.965-8.719,47.936-4.358,53.38,22.878
			c0,0,5.454,30.508-26.145,40.311c-31.596,9.811-80.264-31.894-58.832-82.798c26.146-62.105,106.769-51.205,144.902,8.714
			c0,0,33.772,38.132,10.895,98.057c-22.876,59.918-111.128,116.57-178.675,87.155c-105.679-51.205-104.59-168.874-104.59-168.874
			c-2.183-90.427,72.995-157.965,123.111-183.025c42.218-21.108,223.343-68.636,329.018,93.692
			C841.77,329.316,841.77,333.672,841.77,333.672z"/>
		<path fill="#25C485" d="M617.337,181.146c143.814,3.269,232.06,98.054,232.06,98.054s-77.346-94.788-217.891-106.773
			c-44.669-7.618-168.866,2.185-232.063,99.154C423.412,242.155,487.609,178.201,617.337,181.146z"/>
		<path fill="#25C485" d="M373.296,302.079c0,0-100.231,140.544,15.252,334.463c0,0,43.583,92.604,130.739,173.229
			c-17.436-21.798-164.105-171.133-173.906-349.804C345.381,459.969,338.436,380.512,373.296,302.079z"/>
		<path fill="#25C485" d="M471.398,277.599c-89.682,58.4-72.127,176.403-51.816,215.828c5.102,9.759,10.539,18.313,16.213,25.813
			l-1.027,1.089l-1.787-0.277l0.868,1.592l-0.818,1.621l1.78-0.34l1.289,1.277l0.228-1.795l1.379-0.707
			c55.299,70.285,131.2,43.4,131.2,43.4c76.803-29.654,99.147-101.538,80.944-144.267c0,0-23.602-57.613-76.985-56.553
			c-49.445,0.989-62.063,82.171-18.551,90.983c2.14,0.726,4.433,1.125,6.822,1.125c11.549,0,20.909-9.085,20.909-20.3
			c0-11.216-9.36-20.307-20.909-20.307c-11.537,0-20.897,9.091-20.897,20.307c0,4.081,1.253,7.895,3.396,11.074
			c-8.466-8.256-15.375-23.533-3.396-50.499c22.085-49.739,74.063-10.749,74.063-10.749c44.469,36.385,35.853,91.03,19.605,119.663
			c-20.692,36.479-114.756,97.354-185.654,14.128c-70.532-82.793-8.359-157.687,58.537-183.963
			C573.682,309.465,559.156,220.455,471.398,277.599z M437.408,521.324l-1.104-0.521l-0.185-1.126
			C436.546,520.245,436.979,520.782,437.408,521.324z M423.697,374.566c11.018-65.333,106.086-121.19,109.408-91.309
			c3.151,28.336-55.099,50.379-55.099,50.379C455.182,342.291,436.291,360.396,423.697,374.566z"/>
		<path fill="#25C485" d="M502.41,291.133c-9.567,4.777-33.188,26.351-44.006,36.454c12.146-9.223,30.059-11.257,50.306-25.433
			C532.318,285.623,515.005,284.831,502.41,291.133z"/>
		<path fill="#25C485" d="M452.82,332.852c0,0,2.154-2.06,5.584-5.265C456.386,329.114,454.508,330.834,452.82,332.852z"/>
		<path fill="#25C485" d="M440.613,476.207c0-8.695,5.797-8.695,15.467-4.83c-11.6-27.068-16.434-62.84,24.172-107.312
			C480.252,364.065,413.545,415.305,440.613,476.207z"/>
		<path fill="#25C485" d="M472.674,402.157c0,0-40.113,67.42,43.15,112.78c-6.002-5.758-6.659-14.654,3.188-15.179
			C528.859,499.252,453.284,488.229,472.674,402.157z"/>
		<path fill="#25C485" d="M757.447,270.694c-100.667-74.908-241.125-28.085-241.125-28.085
			c105.342-28.099,218.883-7.032,257.51,62.033c38.625,69.056,15.219,99.493,3.512,107.684
			c-11.703,8.188-46.819,3.515-46.819-18.723c0-22.247,36.282-26.927,36.282-26.927c-10.531-7.021-45.645-3.511-47.985,24.58
			c-2.343,28.085,28.09,37.459,28.09,37.459c53.845,16.385,62.039-29.265,62.039-29.265
			C825.334,319.859,757.447,270.694,757.447,270.694z"/>
		<path fill="#25C485" d="M552.607,311.66c38.625-25.744,142.805-55.013,218.883,18.731
			c-14.043-29.26-69.059-104.173-220.055-81.935C551.438,248.456,587.725,278.894,552.607,311.66z M695.898,277.848
			c-44.859-9.265-74.529-9.123-116.67,9.604c8.145-10.62,5.175-25.673-2.59-31.045C576.639,256.406,640.738,249.188,695.898,277.848
			z"/>
		<path fill="#25C485" d="M745.479,391.432c0,7.144,7.229,12.926,16.145,12.926c8.921,0,16.15-5.782,16.15-12.926
			c0-7.13-7.229-12.912-16.15-12.912C752.706,378.52,745.479,384.302,745.479,391.432z"/>
		<path fill="#25C485" d="M650.433,336.07c9.226,21.224,47.063,6.466,73.819-2.756c26.762-9.242,47.985,22.142,47.985,22.142
			c-11.997-26.766-44.296-34.15-67.364-23.999c-23.069,10.149-39.682,4.613-57.21-11.988c-17.533-16.616-62.751-17.54-78.438-6.465
			C595.064,305.613,641.199,314.846,650.433,336.07z"/>
		<path fill="#25C485" d="M632.898,297.314c0,0,11.989,17.531,35.987,23.992c23.994,6.46,36.912-2.771,50.75-3.689
			c13.841-0.924,28.609,5.536,28.609,5.536s-12.924-14.769-38.763-11.998c-25.838,2.767-48.905,4.614-73.817-14.763L632.898,297.314
			z"/>
		<path fill="#25C485" d="M707.64,390.513c-7.377-43.363,59.063-32.29,59.063-32.29s-14.764-14.769-34.146-13.845
			c-19.381,0.922-55.367,17.53-55.367,17.53c2.768,0.923,15.691,16.611,21.226,30.456c30.097,66.393,17.74,107.283,11.796,117.019
			C732.111,477.018,713.617,425.647,707.64,390.513z"/>
		<path fill="#25C485" d="M704.873,301.928c-19.381-6.46-42.447-10.149-51.672-8.308
			C653.201,293.62,681.804,311.155,704.873,301.928z"/>
		<path fill="#25C485" d="M597.828,265.017c0.969,3.554,0.453,5.616-0.604,6.823c7.405-1.833,20.482-4.957,31.058-6.823
			C609.828,261.326,597.828,265.017,597.828,265.017z"/>
		<path fill="#25C485" d="M597.223,271.84c-3.58,0.886-5.854,1.479-5.854,1.479S595.25,274.082,597.223,271.84z"/>
		<path fill="#25C485" d="M741.369,962.99c97.471,73.34,209.82,11.465,189.697-70.979c-15.552-63.729-69.756-88.111-111.373-61.198
			c-41.608,26.932-30.597,99.422,20.806,99.131c44.045-0.241,40.397-40.383,40.397-40.383s-6.156,33.613-39.199,28.723
			c-33.045-4.901-38.131-54.965-4.762-73.32c43.765-24.051,93.697,47.502,67.602,90.46c-44.076,72.534-162.205,26.94-195.68-44.229
			c-30.57-64.994-28.683-133.811,21.498-235.392c50.183-101.58,150.529-231.313,72.207-357.38c0,0,49.604,97.165-9.793,203.171
			C735.064,600.281,569.405,827.833,741.369,962.99z"/>
		<path fill="#25C485" d="M771.464,930.159c-55.1-42.439-69.993-128.073-65.521-165.303c-5.215,23.831-8.192,115.417,54.352,168.279
			c51.524,43.554,104.982,24.566,121.365,9.675c16.376-14.887,24.423-41.597,8.191-67.754c-8.803-14.18-23.346-16.78-32.321-16.914
			c-1.682-0.419-3.421-0.669-5.228-0.669c-11.87,0-21.5,9.634-21.5,21.509c0,11.864,9.629,21.498,21.5,21.498
			c11.881,0,21.51-9.634,21.51-21.498c0-4.788-1.586-9.193-4.229-12.763c22.327,15.123,26.398,47.525,12.075,62.449
			C863.787,947.279,816.572,964.903,771.464,930.159z"/>
		<path fill="#25C485" d="M684.192,921.417c-37.991-42.596-52.954-142.734-8.057-240.583
			c44.895-97.839,74.816-133.531,59.854-234.824c0,0,14.964,173.822-186.477,191.089c-95.545,4.604-162.305-72.521-179.57-113.962
			C381.449,581.85,506.924,821.279,684.192,921.417z M579.445,654.359c42.591-9.142,89.783-26.474,133.523-81.719
			c-16.117,34.533-37.986,77.115-51.798,102.444c-13.815,25.324-52.954,111.661-23.021,196.848
			c-48.349-40.291-135.831-117.416-204.898-255.555C433.252,616.379,493.592,672.8,579.445,654.359z"/>
		<path fill="#25C485" d="M576.316,685.354c-1.189-14.283,13.683-17.247,30.346-20.229c16.658-2.963,34.508-16.061,43.437-26.766
			c-14.282,11.893-30.348,23.803-49.981,23.202c-19.635-0.604-29.156,7.738-29.752,14.271
			c-22.016-8.912-64.258,10.127-54.734,41.657C515.629,717.488,520.387,674.058,576.316,685.354z"/>
		<path fill="#25C485" d="M457.316,641.925c16.658,24.994,22.015,39.862,46.41,56.517c0,0,2.972-25.574,35.106-29.74
			C507.296,670.481,479.33,663.338,457.316,641.925z"/>
		<path fill="#25C485" d="M616.773,822.206c-19.635-75.56,39.865-156.485,38.082-154.698c-1.789,1.791-24.396,24.989-39.271,69.019
			C600.713,780.559,616.773,822.206,616.773,822.206z"/>
		<path fill="#25C485" d="M607.069,820.124c-40.294-90.939,43.743-149.643,69.066-196.837
			c-17.268,21.865-44.896,42.59-66.768,48.344c-21.87,5.76-18.416,28.78-18.416,28.78s-43.152-20.104-59.861,6.901
			C512.648,737.124,607.069,820.124,607.069,820.124z M615.585,679.996c11.31-6.541,17.257-10.697,17.257-10.697
			s-23.806,30.941-30.344,44.027c0-10.118-1.188-14.888-1.188-14.888C601.311,696.663,604.279,686.545,615.585,679.996z
			 M587.801,710.358c1.295,0,2.344,1.051,2.344,2.342c0,1.292-1.048,2.348-2.344,2.348c-1.301,0-2.348-1.056-2.348-2.348
			C585.453,711.409,586.499,710.358,587.801,710.358z M588.62,722.667c1.975,0,3.574,1.61,3.574,3.586
			c0,1.974-1.601,3.581-3.574,3.581c-1.978,0-3.579-1.606-3.579-3.581C585.041,724.277,586.645,722.667,588.62,722.667z
			 M582.046,735.408c2.655,0,4.813,2.159,4.813,4.815c0,2.662-2.156,4.816-4.813,4.816s-4.809-2.154-4.809-4.816
			C577.238,737.567,579.393,735.408,582.046,735.408z M541.211,729.98c-1.786-2.382-5.947-12.493,0-22.018
			c5.949-9.523,24.982-6.545,24.982-6.545s-10.107,0-19.032,7.737C538.232,716.89,541.211,729.98,541.211,729.98z M548.365,721.701
			c0-7.311,5.923-13.229,13.233-13.229c7.307,0,13.234,5.919,13.234,13.229c0,7.316-5.929,13.234-13.234,13.234
			C554.288,734.938,548.365,729.019,548.365,721.701z M563.818,757.802c-4.133,0-7.482-3.354-7.482-7.482
			c0-4.123,3.352-7.482,7.482-7.482c4.133,0,7.48,3.359,7.48,7.482C571.3,754.447,567.951,757.802,563.818,757.802z
			 M574.527,774.014c5.955,3.567,8.923-11.307,13.095-19.642c-5.949,20.239,2.377,39.872,2.377,39.872
			S571.783,772.359,574.527,774.014z"/>
		<path fill="#25C485" d="M552.826,624.351c81.514,3.63,144.001-67.925,151.251-105.054
			C645.205,624.351,552.826,624.351,552.826,624.351z"/>
		<path fill="#25C485" d="M801.89,436.877c-17.204,17.211-38.036,16.312-49.814,6.344c-2.488-2.102,15.401,57.973-5.433,105.967
			C777.438,511.154,800.074,465.863,801.89,436.877z"/>
		<path fill="#25C485" d="M1339.1,340.433c-22.479-24.942-79.34-32.595-134.396,54.919c-19.048,32.082-67.55,75.634-125.22,64.217
			c-33.946-6.722-95.828-16.307-111.896,38.819c-11.986,41.106,26.32,56.746,45.635,56.364c0,0-53.326-14.334-32.002-61.554
			c7.014-18.037,28.043-37.623,98.169-23.661c38.354,7.154,93.212-4.524,130.329-66.162
			c43.117-71.613,104.036-101.581,137.342-50.136c-1.252-3.341-3.088-6.616-5.395-9.688
			c-48.532-108.579-140.32-149.86-140.32-149.86C1261.826,230.732,1311.547,295.618,1339.1,340.433z"/>
		<path fill="#25C485" d="M1034.107,797.443c1.681-40.588,29.095-58.165,29.095-58.165c37.966-30.235,100.54-12.657,100.54,29.519
			c0,33.5-38.336,44.528-52.893,27.322c-14.555-17.195-6.164-39.264,13.229-43.66c-49.624-1.229-37.049,42.336-37.049,42.336
			c16.248,41.498,59.838,27.432,59.838,27.432c18.989-5.616,34.076-21.352,36.559-45.696c3.519-34.442-11.952-67.486-59.061-73.814
			c-125.976-16.922-111.427,93.403-111.427,93.403s14.551,144.22-47.635,199.792c-102.666,81.233-219.729-6.828-252.016-34.546
			c44.873,39.763,91.5,69.271,167.334,74.233c24.942,0.976,45.818-2.954,63.328-10.403c-36.953,23.613-92.043,58.5-96.407,59.371
			c-38.368-25.141-297.704-239.489-297.704-239.489s255.363,223.6,297.704,255.371c54.249-31.771,129.669-96.601,129.669-96.601
			s-0.249,0.165-0.613,0.404C1042.549,944.122,1033.293,817.207,1034.107,797.443z"/>
		<path fill="#25C485" d="M713.291,961.365c-2.886-2.55-5.765-5.161-8.643-7.79C704.648,953.574,707.715,956.571,713.291,961.365z"
			/>
		<path fill="#25C485" d="M1119.452,741.384c17.287,3.209,23.98,14.468,26.558,23.529c-2.865-4.024-7.541-6.654-12.852-6.654
			c-8.734,0-15.813,7.073-15.813,15.815c0,8.731,7.078,15.824,15.813,15.824c8.746,0,15.816-7.093,15.816-15.824
			c0-1.656-0.32-3.226-0.792-4.719c-0.21-9.976-4.118-26.64-26.623-32.893c-37.966-10.551-74.45,21.149-76.631,59.052
			c-1.646,28.478,5.233,97.473-12.575,147.526c12.256-32.774,20.287-82.034,18.899-139.788
			C1056.171,761.775,1081.486,736.464,1119.452,741.384z M1133.158,781.449c-4.076,0-7.377-3.294-7.377-7.375
			c0-4.076,3.301-7.375,7.377-7.375s7.381,3.299,7.381,7.375C1140.54,778.155,1137.234,781.449,1133.158,781.449z"/>
		<path fill="#25C485" d="M1024.293,961.091c-3.859,6.927-8.414,13.225-13.814,18.619
			C1015.287,975.492,1019.939,969.177,1024.293,961.091z"/>
		<path fill="#25C485" d="M1030.158,948.589c-0.769,1.871-1.558,3.676-2.365,5.415
			C1028.621,952.229,1029.409,950.432,1030.158,948.589z"/>
		<path fill="#25C485" d="M1027.793,954.004c-0.862,1.861-1.717,3.742-2.672,5.527
			C1026.033,957.777,1026.924,955.917,1027.793,954.004z"/>
		<path fill="#25C485" d="M1032.354,943.042c-0.674,1.896-1.443,3.709-2.195,5.547
			C1030.903,946.789,1031.641,944.951,1032.354,943.042z"/>
		<path fill="#25C485" d="M1055.469,683.03c-49.209,4.92-83.654,47.114-73.814,101.942c9.135,57.647,4.219,87.176,0,108.971
			c-0.702-18.978-7.031-54.838-30.229-80.14c-54.141-65.389-153.264-25.318-162.404-7.741
			c94.911-57.646,200.36,20.386,168.729,124.439c-31.635,104.04-153.961,76.628-153.961,76.628h-2.113
			c0,0,66.087,26.721,115.998,0.698c82.965-44.989,84.369-147.641,72.413-223.557C978.134,708.346,1040.004,687.95,1055.469,683.03z
			"/>
		<path fill="#25C485" d="M844.118,633.848c-24.835-22.474-36.851-63.654-36.396-98.787c-0.354,14.538-3.609,73.197-33.145,101.826
			c-40.259,39.037-32.055,121.27,44.699,114.874C882.373,746.507,885.408,671.192,844.118,633.848z M814.229,737.544
			c-64.048,0-49.406-68.938-32.334-88.456c19.45-22.229,27.45-43.92,27.45-43.92c3.052,29.287,32.938,36.605,44.523,67.707
			C875.222,735.104,814.229,737.544,814.229,737.544z"/>
		<path fill="#25C485" d="M807.764,531.733c-0.04,1.099-0.026,2.22-0.04,3.326C807.773,532.935,807.764,531.733,807.764,531.733z"/>
		<path fill="#25C485" d="M806.533,661.754c-21.09,24.228,33.586,50.004,7.027,53.905c-12.464,1.838-30.461-3.114-35.151-27.341
			c0,0-1.804,44.771,41.403,37.507c0,0,33.396-4.388,23.433-41.409C833.739,649.088,813.932,653.268,806.533,661.754z"/>
		<path fill="#25C485" d="M787.453,658.521c-14.533,27.129,18.748,48.434,18.748,48.434c-8.596-7.813-19.255-28.807-14.848-42.188
			c7.146-21.667,30.472-21.864,30.472-21.864S799.168,636.65,787.453,658.521z"/>
		<path fill="#25C485" d="M797.895,638.375c4.562-2.845,13.976-5.414,22.244,0.284c-7.984-6.278-10.268-10.266-11.698-17.395
			C808.439,621.266,805.594,631.537,797.895,638.375z"/>
		<path fill="#25C485" d="M841.689,663.841c-13.398-27.671-34.227-10.272-34.227-10.272
			C824.578,643.593,835.986,657.291,841.689,663.841z"/>
		<path fill="#25C485" d="M939.612,708.143c-27.536-5.041-53.106,23.072-73.662,44.655c-20.556,21.578-58.214,26.72-88.463,7.329
			c-75.638-55.862-30.177-108.914-8.532-133.438c29.082-32.964,26.078-69.175,26.078-69.175
			c-2.061,43.166-23.756,57.931-38.105,74.606c-53.91,65.55-20.737,110.911,12.408,133.813
			c42.668,29.486,89.212,10.85,113.061-17.252c34.944-37.002,61.063-34.792,70.016-19.197c12.027,20.938-10.639,37.38-20.169,35.281
			c-12.415-2.709-14.354-13.959-10.794-23.283c-13.253,13.977-3.891,31.47,10.406,33.373c18.239,2.437,33.354-13.96,34.818-27.204
			C967.738,737.959,967.466,713.246,939.612,708.143z"/>
		<path fill="#25C485" d="M813.949,762.44c-10.479-0.383-25.612-3.489-34.137-8.922c0,0,29.861,24.825,70.979,3.492
			c12.415-6.979,22.494-23.266,36.069-34.132c13.569-10.862,36.851-29.863,62.447-19.778c-7.369-6.979-41.113-12.413-71.367,21.328
			C862.037,741.889,850.404,762.059,813.949,762.44z"/>
		<path fill="#25C485" d="M930.447,741.752c-1.85,4.793-0.021,9.961,4.076,11.536c4.098,1.578,8.924-1.027,10.764-5.83
			c1.844-4.797,0.021-9.967-4.077-11.535C937.112,734.339,932.292,736.945,930.447,741.752z"/>
		<path fill="#25C485" d="M892.291,755.852c-10.079,14.75-23.271,15.899-23.271,15.899c8.923,3.106,23.661-10.09,32.578-21.328
			c22.893-21.729,34.913-15.908,39.61-14.5C928.067,723.351,902.377,741.106,892.291,755.852z"/>
		<path fill="#25C485" d="M914.014,779.895c28.308,9.308,44.603,15.132,63.996,56.63c2.327-18.618-12.8-48.481-8.924-70.589
			c-7.372,13.959-13.965,20.171-36.843,15.132c-7.66-1.7-39.182-6.988-25.987-24.443
			C906.256,756.623,885.699,770.583,914.014,779.895z"/>
		<path fill="#25C485" d="M843.796,612.217c-8.028-17.384-22.069-46.139-24.747-100.308
			C819.049,511.909,809.688,574.104,843.796,612.217z"/>
		<path fill="#25C485" d="M922.035,688.454c-26.753-2.677-32.771-4.68-42.135-19.396c-1.129-1.786,8.029,21.398,0.675,36.12
			C891.939,692.464,901.977,687.781,922.035,688.454z"/>
		<path fill="#25C485" d="M1004.895,689.02c-19.11,7.036-33.1,6.019-42.737,5.452c0,0,14.71,15.802,15.7,31.51
			C979.051,709.938,983.841,699.123,1004.895,689.02z"/>
		<path fill="#25C485" d="M1004.895,689.02c3.426-1.263,7-2.752,10.761-4.579C1011.651,685.966,1008.093,687.488,1004.895,689.02z"
			/>
		<path fill="#25C485" d="M977.855,725.98c-0.148,1.907-0.26,3.872-0.319,5.946C977.912,729.966,977.974,727.979,977.855,725.98z"/>
		<path fill="#25C485" d="M1130.679,842.262c-23.407,0-56.179-4.684-61.526-49.483c0,0-4.015,26.748-1.342,58.844
			c2.676,32.102,7.357,56.841-11.363,84.264c53.496-46.14,106.999-82.25,151.8-137.085
			C1194.715,813.465,1166.274,842.262,1130.679,842.262z M1086.539,894.42c6.693-12.025,0-43.472,0-43.472
			c21.4,19.405,50.152,3.354,50.152,3.354S1105.259,881.047,1086.539,894.42z"/>
		<path fill="#25C485" d="M1279.135,620.242c-26.744-34.108-90.949-22.737-107.667-6.691c74.901-32.766,133.08,20.074,90.946,57.521
			c-42.123,37.439-111.673,4.006-179.217,14.033c-67.543,10.038-74.896,51.497-74.896,51.497
			c30.094-46.809,68.201-44.137,105.657-46.144c37.454-2.003,70.888,10.033,111.008,8.026
			C1265.087,696.47,1305.882,654.351,1279.135,620.242z"/>
		<path fill="#25C485" d="M1027.691,680.434c0,0,53.498-23.405,108.334-10.042c0,0-0.76-0.711-1.811-2.025
			c-4.275-5.301-13.497-20.112,3.146-34.076c20.733-17.389,20.733-17.389,20.733-17.389s-42.136,20.056-79.586,38.787
			C1041.068,674.411,1027.691,680.434,1027.691,680.434z"/>
		<path fill="#25C485" d="M1188.854,673.737c0,0,68.89,5.357,72.226-32.102c3.347-37.443-58.851-30.758-88.935-18.048
			C1142.041,636.288,1123.979,674.402,1188.854,673.737z M1174.813,635.624c-12.701,23.401,23.407-0.665,42.125-8.026
			c18.738-7.354,36.784-1.337,30.764,16.722c-6.758,20.271-41.462,9.357-41.462,9.357s36.12,0,30.093-12.704
			c-6.014-12.71-24.189-2.855-33.436,2.008c-12.709,6.688-26.08,18.053-38.118,12.709
			C1150.844,649.487,1174.813,635.624,1174.813,635.624z"/>
		<path fill="#25C485" d="M1307.686,606.619c0,0-19.166-14.565-48.288-12.266l3.066,0.768c0,0,49.05,8.435,33.718,52.119
			C1309.984,621.939,1307.686,606.619,1307.686,606.619z"/>
		<path fill="#25C485" d="M1319.949,588.217c0,0,8.426-21.451,13.031-41.38c-7.672,19.93-23.761,29.892-23.761,29.892
			C1317.641,578.26,1319.949,588.217,1319.949,588.217z"/>
		<path fill="#25C485" d="M1266.288,693.218c-26.058,25.293-61.31,31.413-92.73,16.1c0,0,40.616,29.886,19.161,85.072
			C1211.118,775.992,1242.531,740.738,1266.288,693.218z M1235.635,722.35c0,0-26.82,39.086-24.524,29.888
			c2.297-9.194-3.834-20.688-3.834-20.688C1217.241,738.443,1235.635,722.35,1235.635,722.35z"/>
	</g>
</g>
</svg>
