<?xml version="1.0" encoding="utf-8"?>
<!-- Generator: Adobe Illustrator 16.0.0, SVG Export Plug-In . SVG Version: 6.00 Build 0)  -->
<!DOCTYPE svg PUBLIC "-//W3C//DTD SVG 1.1//EN" "http://www.w3.org/Graphics/SVG/1.1/DTD/svg11.dtd">
<svg version="1.1" id="Layer_1" xmlns="http://www.w3.org/2000/svg" xmlns:xlink="http://www.w3.org/1999/xlink" x="0px" y="0px"
	 width="500px" height="500px" viewBox="0 0 500 500" enable-background="new 0 0 500 500" xml:space="preserve">
<g>
	<g>
		<g>
			<g>
				<path fill="#9A3333" d="M312.448,285.258c-3.06,0-5.836-2.084-6.587-5.188c-0.878-3.64,1.358-7.305,4.999-8.185
					c14.118-3.414,29.553-15.877,41.289-33.337c10.911-16.234,16.315-33.535,13.767-44.074c-0.881-3.641,1.356-7.304,4.996-8.185
					c3.641-0.882,7.306,1.356,8.187,4.998c3.505,14.495-2.362,34.991-15.693,54.827c-13.781,20.503-31.771,34.701-49.357,38.955
					C313.513,285.197,312.976,285.258,312.448,285.258z"/>
			</g>
			<g>
				<path fill="#9A3333" d="M135.412,166.939c-3.121,0-5.929-2.167-6.62-5.341c-3.171-14.572,3.164-34.928,16.948-54.452
					c14.248-20.181,32.56-33.962,50.239-37.81c3.666-0.799,7.271,1.524,8.068,5.184c0.796,3.659-1.524,7.272-5.184,8.068
					c-14.193,3.089-29.91,15.194-42.043,32.38c-11.282,15.98-17.082,33.152-14.775,43.746c0.796,3.66-1.524,7.272-5.184,8.069
					C136.374,166.888,135.889,166.939,135.412,166.939z"/>
			</g>
			<g>
				<path fill="#9A3333" d="M248.868,75.459c-0.957,0-1.929-0.204-2.855-0.634c-2.979-1.384-13.632-0.843-21.712,0.536
					c-3.697,0.626-7.193-1.852-7.825-5.542c-0.63-3.692,1.849-7.194,5.539-7.826c4.896-0.839,21.516-3.281,29.717,0.535
					c3.396,1.578,4.868,5.612,3.289,9.008C253.872,74.005,251.425,75.459,248.868,75.459z"/>
			</g>
		</g>
	</g>
	<path fill="#9A3333" d="M278.121,349.845c-3.369,0-6.288-2.506-6.722-5.938c-0.144-1.161-3.578-28.828-3.828-60.641
		c-0.119-14.833,0.479-27.979,1.784-39.413c-6.268,0.733-12.898,1.107-19.836,1.107c-6.462,0-12.65-0.325-18.515-0.963
		c1.306,11.293,1.951,24.253,1.931,38.853c-0.043,31.957-3.243,59.826-3.379,60.997c-0.433,3.72-3.808,6.384-7.519,5.951
		c-3.72-0.433-6.385-3.798-5.952-7.518c2.42-20.832,5.476-66.492,1.011-100.52c-9.273-2.021-17.438-4.979-24.252-8.825
		c-12.69-7.162-19.967-16.96-19.967-26.88c0-9.103,7.15-18.899,22.847-18.899c7.373,0,14.062,3.137,19.345,9.07
		c6.239,7.007,10.859,18.336,13.837,33.868c5.981,0.813,12.819,1.304,20.614,1.304c8.342,0,15.618-0.561,21.938-1.481
		c2.93-15.165,7.499-26.31,13.688-33.324c5.523-6.262,12.279-9.437,20.081-9.437c15.381,0,22.268,9.228,22.268,18.373
		c0,9.806-7.623,19.955-20.389,27.149c-6.753,3.804-14.771,6.76-23.828,8.816c-4.469,34.059-1.036,79.914,1.581,100.724
		c0.465,3.716-2.168,7.105-5.885,7.573C278.688,349.827,278.403,349.845,278.121,349.845z M195.723,200.718
		c-2.178,0-9.285,0.385-9.285,5.337c0,3.547,3.422,9.623,13.07,15.069c3.579,2.02,8.477,4.206,14.998,6.041
		c-2.212-9.444-5.313-17.144-9.568-21.921C202.188,202.156,199.26,200.718,195.723,200.718z M305.227,200.718
		c-3.845,0-6.993,1.54-9.91,4.846c-4.173,4.731-7.223,12.173-9.4,21.259c6.248-1.832,11.007-3.975,14.531-5.961
		c9.313-5.249,13.482-11.483,13.482-15.333C313.93,201.065,307.268,200.718,305.227,200.718z"/>
	<g>
		<g>
			<g>
				<path fill="#454546" d="M327.016,383.513H173.488c-3.745,0-6.781-3.037-6.781-6.782c0-3.744,3.036-6.78,6.781-6.78h153.528
					c3.746,0,6.782,3.036,6.782,6.78C333.798,380.476,330.762,383.513,327.016,383.513z"/>
			</g>
			<g>
				<path fill="#454546" d="M313.112,413.639h-125.72c-3.746,0-6.781-3.036-6.781-6.781c0-3.746,3.036-6.781,6.781-6.781h125.72
					c3.745,0,6.78,3.035,6.78,6.781C319.893,410.603,316.857,413.639,313.112,413.639z"/>
			</g>
			<g>
				<path fill="#454546" d="M250.252,471.863c-17.955,0-32.562-14.607-32.562-32.562c0-2.389,0.268-4.792,0.796-7.147
					c0.45-2.011,1.792-3.707,3.645-4.611c1.851-0.902,4.015-0.914,5.876-0.032c7.01,3.325,14.494,5.009,22.245,5.009
					c7.75,0,15.234-1.684,22.244-5.009c1.86-0.882,4.024-0.87,5.877,0.032c1.852,0.904,3.195,2.601,3.644,4.611
					c0.529,2.355,0.799,4.759,0.799,7.147C282.815,457.256,268.206,471.863,250.252,471.863z M231.699,443.408
					c1.881,8.509,9.485,14.893,18.553,14.893c9.068,0,16.671-6.384,18.554-14.893c-5.993,1.778-12.203,2.674-18.554,2.674
					S237.692,445.187,231.699,443.408z"/>
			</g>
			<path fill="#454546" d="M250.252,446.082c-36.323,0-65.875-29.551-65.875-65.875v-32.828c0-3.746,3.036-6.781,6.781-6.781
				h118.188c3.745,0,6.78,3.035,6.78,6.781v32.828C316.126,416.531,286.577,446.082,250.252,446.082z M197.939,354.159v26.048
				c0,28.847,23.467,52.313,52.313,52.313c28.846,0,52.313-23.466,52.313-52.313v-26.048H197.939z"/>
		</g>
	</g>
	<path fill="#454546" d="M309.346,354.159H191.158c-3.745,0-6.781-3.037-6.781-6.78v-31.066c-1.75-1.371-6.631-3.535-10.635-5.312
		C148.485,299.8,95.93,276.491,95.93,181.297c0-85.093,69.229-154.322,154.322-154.322c85.093,0,154.323,69.229,154.323,154.322
		c0,40.939-8.658,71.379-26.466,93.058c-15.144,18.437-33.566,26.261-47.017,31.973c-7.023,2.982-14.986,6.364-14.967,8.915v32.136
		C316.126,351.122,313.091,354.159,309.346,354.159z M197.939,340.598h104.626v-25.3c-0.097-11.549,10.713-16.14,23.228-21.453
		c25.971-11.03,65.218-27.698,65.218-112.547c0-77.616-63.144-140.76-140.759-140.76s-140.76,63.144-140.76,140.76
		c0,86.374,45.372,106.497,69.748,117.306c10.563,4.686,18.919,8.392,18.7,16.8V340.598z"/>
</g>
</svg>
