<?xml version="1.0" encoding="utf-8"?>
<!-- Generator: Adobe Illustrator 16.0.0, SVG Export Plug-In . SVG Version: 6.00 Build 0)  -->
<!DOCTYPE svg PUBLIC "-//W3C//DTD SVG 1.1//EN" "http://www.w3.org/Graphics/SVG/1.1/DTD/svg11.dtd">
<svg version="1.1" id="Layer_1" xmlns="http://www.w3.org/2000/svg" xmlns:xlink="http://www.w3.org/1999/xlink" x="0px" y="0px"
	 width="500px" height="500px" viewBox="0 0 500 500" enable-background="new 0 0 500 500" xml:space="preserve">
<g id="launch">
</g>
<g id="bulb">
</g>
<g id="megaphone">
	<g>
		<path fill="#B5B5B5" d="M500,250c0-27.273-19.318-50-45.454-55.682V90.909c0-19.318-14.773-34.091-34.092-34.091
			c-17.045,0-30.682,12.5-34.091,29.545c-45.454,47.727-82.954,71.591-127.272,80.682c-5.682,1.136-10.227,6.818-9.091,13.636
			c1.137,5.682,5.682,9.091,11.363,9.091c1.137,0,1.137,0,2.273,0c43.182-10.227,80.682-30.682,122.727-71.591v262.5
			c-42.045-39.772-79.545-61.363-122.727-70.455c-14.773-2.271-30.682-3.408-47.728-3.408c-6.818,0-11.364,4.545-11.364,11.363
			v11.363H56.818v-34.09v-90.91v-34.091h147.727v102.272c0,6.818,4.545,11.364,11.364,11.364c6.818,0,11.364-4.546,11.364-11.364
			V170.455c0-12.5-10.228-22.728-22.728-22.728H56.818c-12.5,0-22.728,10.228-22.728,22.728v22.727H22.727
			C10.227,193.182,0,203.409,0,215.909v68.182c0,12.5,10.227,22.728,22.727,22.728h11.364v22.727
			c0,12.5,10.228,22.728,22.728,22.728h22.727v65.909c0,13.637,11.364,25,25,25c10.228,0,19.318-6.818,22.728-15.909L146.591,375
			h12.5c6.818,0,11.364-4.545,11.364-11.363v-11.364h34.091c12.5,0,22.728-10.228,22.728-22.728c11.363,0,21.591,2.273,31.818,3.41
			c44.318,9.09,82.955,32.954,127.272,80.682c2.273,15.909,17.046,29.545,34.091,29.545c19.318,0,34.092-14.772,34.092-34.091
			V305.682C480.682,300,500,277.272,500,250z M22.727,284.091v-68.182h11.364v68.182H22.727z M106.818,419.318
			c-1.137,1.136-4.545,1.136-4.545-1.137v-65.909h29.545L106.818,419.318z M431.818,409.091c0,6.818-4.546,11.363-11.364,11.363
			c-6.817,0-11.363-4.545-11.363-11.363V90.909c0-6.818,4.546-11.364,11.363-11.364c6.818,0,11.364,4.545,11.364,11.364v113.636
			v90.91V409.091z M454.546,281.818v-64.773c13.636,4.545,22.727,17.045,22.727,31.818S468.182,277.272,454.546,281.818z"/>
		<path fill="#B5B5B5" d="M159.091,272.727h-56.818c-6.818,0-11.364,4.546-11.364,11.364s4.545,11.364,11.364,11.364h56.818
			c6.818,0,11.364-4.546,11.364-11.364S165.909,272.727,159.091,272.727z"/>
		<path fill="#B5B5B5" d="M159.091,238.636h-56.818c-6.818,0-11.364,4.545-11.364,11.364s4.545,11.363,11.364,11.363h56.818
			c6.818,0,11.364-4.545,11.364-11.363S165.909,238.636,159.091,238.636z"/>
		<path fill="#B5B5B5" d="M159.091,204.545h-56.818c-6.818,0-11.364,4.545-11.364,11.364c0,6.818,4.545,11.363,11.364,11.363h56.818
			c6.818,0,11.364-4.545,11.364-11.363C170.455,209.091,165.909,204.545,159.091,204.545z"/>
	</g>
</g>
<g id="reward">
</g>
<g id="scales">
</g>
<g id="bishop">
</g>
<g id="billboard">
</g>
<g id="billboard_x5F_small">
</g>
<g id="strategy">
</g>
<g id="advertising">
</g>
<g id="queen">
</g>
<g id="mobile_x5F_shop">
</g>
<g id="web_x5F_shop">
</g>
<g id="target">
</g>
<g id="mobile_x5F_marketing_1_">
</g>
<g id="mobile_x5F__campaign">
</g>
<g id="success">
</g>
<g id="ppk">
</g>
<g id="pawn">
</g>
<g id="audience">
</g>
</svg>
