<?xml version="1.0" encoding="utf-8"?>
<!-- Generator: Adobe Illustrator 16.0.0, SVG Export Plug-In . SVG Version: 6.00 Build 0)  -->
<!DOCTYPE svg PUBLIC "-//W3C//DTD SVG 1.1//EN" "http://www.w3.org/Graphics/SVG/1.1/DTD/svg11.dtd">
<svg version="1.1" id="Layer_1" xmlns="http://www.w3.org/2000/svg" xmlns:xlink="http://www.w3.org/1999/xlink" x="0px" y="0px"
	 width="500px" height="500px" viewBox="0 0 500 500" enable-background="new 0 0 500 500" xml:space="preserve">
<path fill="#9A3333" d="M393.063,268.011c7.745,0,14.01-6.271,14.01-14.009c0-7.739-6.265-14.012-14.01-14.012
	c-7.737,0-14.009,6.272-14.009,14.012C379.055,261.74,385.325,268.011,393.063,268.011z M391.509,330.67
	c7.739,0,14.009-6.275,14.009-14.016c0-7.737-6.27-14.014-14.009-14.014c-7.744,0-14.015,6.275-14.015,14.014
	C377.494,324.395,383.765,330.67,391.509,330.67z M391.897,362.186c-7.744,0-14.016,6.275-14.016,14.016s6.271,14.003,14.016,14.003
	c7.738,0,14.009-6.265,14.009-14.003C405.906,368.462,399.637,362.186,391.897,362.186z M298.895,237.655H173.964
	c-49.034,0-56.041,24.52-56.041,56.041v111.481c9.345,14.998,34.516,15.971,68.501,16.554
	c50.119,0.856,115.34-11.684,127.641-13.627c22.188-3.497,17.513-84.053,18.684-138.922c0.172-8.07-0.257-14.976-1.16-20.934
	C322.379,241.61,311.103,237.655,298.895,237.655z M239.538,180.448h36.778c4.517,0,8.168-3.661,8.168-8.173
	c0-4.512-3.651-8.17-8.168-8.17h-36.778c-4.51,0-8.167,3.658-8.167,8.17C231.371,176.788,235.028,180.448,239.538,180.448z"/>
<path fill="#454545" d="M294.631,170.326c-1.824-12.866-11.672-23.137-24.337-25.529l50.576-51.374
	c1.058,0.257,2.167,0.429,3.314,0.432c7.849,0,14.197-6.356,14.216-14.201c-0.019-7.847-6.367-14.194-14.216-14.203
	c-7.848,0.009-14.19,6.356-14.202,14.203c0,1.452,0.279,2.824,0.69,4.144l-57.881,58.804l-55.001-85.225
	c1.023-1.96,1.657-4.155,1.663-6.519c-0.006-7.856-6.367-14.203-14.209-14.214c-7.853,0.011-14.197,6.358-14.203,14.214
	c0.006,7.845,6.35,14.192,14.203,14.2c0.263,0,0.52-0.063,0.789-0.08l51.171,79.306c-15.049,0.286-27.349,11.502-29.418,26.04
	H50.982V464.54h400.06V170.326H294.631z M185.132,50.928c-0.023-0.029-0.068-0.035-0.068-0.069c0-0.108,0.08-0.197,0.183-0.197
	c0.057,0,0.086,0.069,0.114,0.117L185.132,50.928z M237.789,158.258h26.846c7.533,0.017,13.758,5.138,15.649,12.068h-58.133
	C224.032,163.396,230.256,158.275,237.789,158.258z M64.991,450.525v-266.19h372.037l0.018,266.19H64.991z M345.19,271.516
	c0-34.823-28.225-63.047-63.05-63.047H149.066c-34.825,0-63.042,28.224-63.06,63.047v91.06c0.018,34.831,28.235,63.043,63.06,63.055
	h133.075c34.825-0.012,63.05-28.224,63.061-63.055h-0.011V271.516z M331.182,362.574c-0.046,27.08-21.947,48.994-49.039,49.027
	l-133.076,0.013c-27.086-0.046-48.993-21.96-49.039-49.04l-0.012-91.061c0.058-27.083,21.965-48.988,49.051-49.04h133.076
	c27.092,0.052,48.993,21.957,49.039,49.04l0.018,91.061H331.182L331.182,362.574z M391.903,235.323
	c-11.62,0-21.017,9.405-21.027,21.011c0.012,11.607,9.407,21.01,21.027,21.016c11.607-0.006,20.999-9.406,21.017-21.016
	C412.902,244.729,403.512,235.323,391.903,235.323z M391.903,263.341c-3.875-0.011-7.001-3.138-7.014-7.007
	c0.013-3.863,3.139-6.999,7.014-7.01c3.863,0.011,6.983,3.146,7.002,7.01C398.888,260.203,395.768,263.33,391.903,263.341z
	 M391.903,296.027c-11.62,0-21.017,9.414-21.027,21.017c0.012,11.603,9.407,21.011,21.027,21.011
	c11.607,0,20.999-9.408,21.017-21.011C412.902,305.441,403.512,296.027,391.903,296.027z M391.903,324.04
	c-3.875,0-7.001-3.132-7.014-6.996c0.013-3.862,3.139-6.995,7.014-7.007c3.863,0.012,6.983,3.145,7.002,7.007
	C398.888,320.908,395.768,324.04,391.903,324.04z M391.903,356.732c-11.62,0.012-21.017,9.408-21.027,21.021
	c0.012,11.614,9.407,21.011,21.027,21.021c11.607-0.012,20.999-9.407,21.017-21.021
	C412.902,366.141,403.512,356.744,391.903,356.732z M391.903,384.762c-3.875-0.011-7.001-3.143-7.014-7.007
	c0.013-3.875,3.139-6.996,7.014-7.007c3.863,0.011,6.983,3.132,7.002,7.007C398.888,381.619,395.768,384.751,391.903,384.762z"/>
</svg>
