<?xml version="1.0" encoding="utf-8"?>
<!-- Generator: Adobe Illustrator 16.0.0, SVG Export Plug-In . SVG Version: 6.00 Build 0)  -->
<!DOCTYPE svg PUBLIC "-//W3C//DTD SVG 1.1//EN" "http://www.w3.org/Graphics/SVG/1.1/DTD/svg11.dtd">
<svg version="1.1" id="Layer_1" xmlns="http://www.w3.org/2000/svg" xmlns:xlink="http://www.w3.org/1999/xlink" x="0px" y="0px"
	 width="500px" height="500px" viewBox="0 0 500 500" enable-background="new 0 0 500 500" xml:space="preserve">
<path fill="#D6D6D6" d="M393.063,268.011c7.745,0,14.009-6.271,14.009-14.009c0-7.739-6.264-14.012-14.009-14.012
	c-7.738,0-14.009,6.272-14.009,14.012C379.055,261.74,385.325,268.011,393.063,268.011z M391.509,330.67
	c7.739,0,14.009-6.275,14.009-14.015c0-7.738-6.27-14.015-14.009-14.015c-7.744,0-14.015,6.276-14.015,14.015
	C377.494,324.395,383.765,330.67,391.509,330.67z M391.897,362.186c-7.744,0-14.015,6.275-14.015,14.015s6.271,14.003,14.015,14.003
	c7.739,0,14.009-6.264,14.009-14.003S399.637,362.186,391.897,362.186z M298.895,237.655H173.964
	c-49.034,0-56.041,24.52-56.041,56.041v111.481c9.345,14.998,34.516,15.97,68.501,16.553c50.119,0.857,115.34-11.683,127.64-13.626
	c22.188-3.498,17.513-84.053,18.684-138.922c0.172-8.07-0.257-14.976-1.16-20.934C322.379,241.61,311.103,237.655,298.895,237.655z
	 M239.538,180.448h36.779c4.516,0,8.168-3.661,8.168-8.173c0-4.512-3.652-8.17-8.168-8.17h-36.779c-4.51,0-8.167,3.658-8.167,8.17
	C231.371,176.788,235.028,180.448,239.538,180.448z"/>
<path fill="#B5B5B6" d="M294.631,170.326c-1.824-12.866-11.672-23.137-24.337-25.529l50.576-51.374
	c1.058,0.257,2.167,0.429,3.315,0.432c7.848,0,14.197-6.356,14.215-14.201c-0.018-7.847-6.367-14.194-14.215-14.203
	c-7.848,0.009-14.191,6.356-14.203,14.203c0,1.452,0.28,2.824,0.691,4.144l-57.881,58.804l-55.001-85.225
	c1.023-1.96,1.657-4.155,1.663-6.519c-0.006-7.856-6.367-14.203-14.209-14.214c-7.853,0.011-14.197,6.358-14.203,14.214
	c0.006,7.845,6.35,14.192,14.203,14.2c0.263,0,0.52-0.063,0.789-0.08l51.171,79.306c-15.049,0.286-27.349,11.502-29.418,26.04
	H50.982V464.54h400.06V170.326H294.631z M185.132,50.928c-0.023-0.029-0.068-0.035-0.068-0.069c0-0.108,0.08-0.197,0.183-0.197
	c0.057,0,0.086,0.069,0.114,0.117L185.132,50.928z M237.789,158.258h26.846c7.533,0.017,13.758,5.138,15.649,12.068h-58.133
	C224.032,163.396,230.256,158.275,237.789,158.258z M64.991,450.525v-266.19h372.037l0.018,266.19H64.991z M345.19,271.515
	c0-34.822-28.224-63.046-63.049-63.046H149.066c-34.825,0-63.042,28.224-63.06,63.046v91.06
	c0.018,34.831,28.235,63.043,63.06,63.055h133.075c34.825-0.012,63.049-28.224,63.06-63.055h-0.011V271.515z M331.182,362.574
	c-0.046,27.08-21.948,48.994-49.04,49.028l-133.075,0.012c-27.086-0.046-48.993-21.96-49.039-49.04l-0.012-91.06
	c0.058-27.083,21.965-48.988,49.051-49.04h133.075c27.092,0.052,48.994,21.957,49.04,49.04l0.017,91.06H331.182z M391.903,235.323
	c-11.62,0-21.016,9.405-21.027,21.011c0.012,11.608,9.407,21.01,21.027,21.016c11.608-0.006,20.999-9.407,21.017-21.016
	C412.902,244.729,403.512,235.323,391.903,235.323z M391.903,263.341c-3.875-0.011-7.001-3.138-7.013-7.007
	c0.012-3.864,3.138-6.999,7.013-7.01c3.864,0.011,6.984,3.146,7.002,7.01C398.888,260.203,395.768,263.33,391.903,263.341z
	 M391.903,296.028c-11.62,0-21.016,9.413-21.027,21.016c0.012,11.603,9.407,21.011,21.027,21.011
	c11.608,0,20.999-9.408,21.017-21.011C412.902,305.441,403.512,296.028,391.903,296.028z M391.903,324.04
	c-3.875,0-7.001-3.132-7.013-6.996c0.012-3.863,3.138-6.995,7.013-7.007c3.864,0.012,6.984,3.144,7.002,7.007
	C398.888,320.908,395.768,324.04,391.903,324.04z M391.903,356.733c-11.62,0.011-21.016,9.407-21.027,21.021
	c0.012,11.614,9.407,21.011,21.027,21.021c11.608-0.011,20.999-9.407,21.017-21.021
	C412.902,366.141,403.512,356.744,391.903,356.733z M391.903,384.762c-3.875-0.011-7.001-3.143-7.013-7.007
	c0.012-3.875,3.138-6.996,7.013-7.007c3.864,0.011,6.984,3.132,7.002,7.007C398.888,381.619,395.768,384.751,391.903,384.762z"/>
</svg>
